<?xml version="1.0" encoding="UTF-8"?>
<!DOCTYPE svg PUBLIC "-//W3C//DTD SVG 1.1//EN" "http://www.w3.org/Graphics/SVG/1.1/DTD/svg11.dtd">
<!-- Creator: CorelDRAW 2020 (64-Bit) -->
<svg xmlns="http://www.w3.org/2000/svg" xml:space="preserve" width="8.53328in" height="8.33334in" version="1.1" style="shape-rendering:geometricPrecision; text-rendering:geometricPrecision; image-rendering:optimizeQuality; fill-rule:evenodd; clip-rule:evenodd"
viewBox="0 0 4845.33 4731.79"
 xmlns:xlink="http://www.w3.org/1999/xlink"
 xmlns:xodm="http://www.corel.com/coreldraw/odm/2003">
 <defs>
  <style type="text/css">
   <![CDATA[
    .fil0 {fill:#BE9D39;fill-rule:nonzero}
   ]]>
  </style>
 </defs>
 <g id="Layer_x0020_1">
  <metadata id="CorelCorpID_0Corel-Layer"/>
  <path class="fil0" d="M4845.32 1870.74c0,-601.26 -872.15,-1604.46 -1047.25,-1799.37 -85.87,-91.22 -229.43,-95.57 -320.67,-9.69 -3.33,3.14 -6.57,6.36 -9.69,9.69 -305.7,344.14 -578.52,716.14 -814.89,1111.11 -143.15,-175.09 -253.28,-299.53 -289.62,-340.27 -85.87,-91.22 -229.43,-95.57 -320.67,-9.69 -3.33,3.13 -6.57,6.36 -9.69,9.69 -300.42,340.47 -579.2,699.43 -834.72,1074.77 -101.31,-170.69 -199.31,-316.05 -252.17,-392.03 -69.18,-100.05 -206.37,-125.06 -306.41,-55.88 -21.85,15.11 -40.78,34.04 -55.88,55.88 -132.15,200.43 -583.64,880.97 -583.64,1226.74 -1.84,398.5 300.38,732.7 697.06,770.84 183.78,831.37 1006.71,1356.37 1838.1,1172.6 705.31,-155.9 1207.82,-780.62 1208.93,-1502.97 -0.67,-36.86 -3.61,-73.63 -8.81,-110.12 629.16,-52.78 1112.25,-579.95 1110.03,-1211.31zm-1796.32 1068.13c-17.26,-58.15 -78.41,-91.3 -136.57,-74.04 -58.15,17.26 -91.3,78.41 -74.04,136.57 68.35,229.14 7.03,477.32 -160.15,648.27 -42.46,43.2 -41.86,112.66 1.35,155.13 19.35,19.01 45.04,30.18 72.14,31.35 29.31,-0.12 57.36,-11.97 77.88,-32.91 224.99,-226.73 309.02,-557.8 219.39,-864.37zm-520.47 954.85c-17.26,-58.15 -78.41,-91.3 -136.57,-74.04 -61.23,18.25 -124.78,27.48 -188.66,27.42 -60.58,0 -109.69,49.1 -109.69,109.69 0,60.58 49.1,109.69 109.69,109.69 85.04,0.17 169.65,-12.02 251.19,-36.2 58.15,-17.25 91.3,-78.39 74.04,-136.55zm1667.93 -2273.07c-1.59,-4.22 -3.46,-8.34 -5.55,-12.33 -17.55,-38.4 -37.29,-77.88 -58.14,-117.37 -32.43,-51.17 -100.2,-66.37 -151.37,-33.93 -46.66,29.56 -64.05,89.22 -40.59,139.24 18.65,34 36.2,69.11 50.45,102.01 21.43,56.66 84.74,85.23 141.4,63.78 56.66,-21.44 85.24,-84.74 63.81,-141.4zm-204.1 -357.87c-91.05,-133.83 -187.57,-256.68 -252.29,-336.75 -35.83,-48.85 -104.47,-59.41 -153.33,-23.59 -48.85,35.83 -59.41,104.47 -23.59,153.33 2.15,2.93 4.45,5.76 6.89,8.47 62.52,76.78 154.66,194.15 240.22,321.4 33.92,50.29 102.19,63.54 152.47,29.62 50.3,-33.92 63.55,-102.19 29.63,-152.48zm-3221.49 1819.29c-182.45,0 -330.36,-147.91 -330.36,-330.36 0,-110.12 150.87,-404.14 330.36,-697.06 179.49,292.93 330.36,586.95 330.36,697.06 0,182.45 -147.91,330.36 -330.36,330.36zm1431.56 1211.32c-514.1,-2.83 -958.7,-358.96 -1073.68,-860.04 253.54,-132.91 412.55,-395.37 412.95,-681.64 -8.62,-123.96 -39.98,-245.28 -92.5,-357.89 8.83,-48.5 28.39,-94.4 57.26,-134.35 213.43,-324.34 445.82,-635.78 695.97,-932.72 482.33,570.43 1101.2,1445.89 1101.2,1865.45 0.01,608.16 -493.01,1101.19 -1101.2,1101.19zm1431.58 -1651.81l-26.43 0c-176.63,-381.75 -395.27,-742.61 -651.91,-1075.88 4.1,-13.58 10.04,-26.54 17.62,-38.55 185.62,-345.31 407.09,-670.12 660.72,-969.06 361.19,440.48 770.84,1037.34 770.84,1312.63 0,425.74 -345.12,770.85 -770.84,770.85z"/>
 </g>
</svg>
