<?xml version="1.0" encoding="UTF-8"?>
<!DOCTYPE svg PUBLIC "-//W3C//DTD SVG 1.1//EN" "http://www.w3.org/Graphics/SVG/1.1/DTD/svg11.dtd">
<!-- Creator: CorelDRAW 2020 (64-Bit) -->
<svg xmlns="http://www.w3.org/2000/svg" xml:space="preserve" width="0.833335in" height="0.832055in" version="1.1" style="shape-rendering:geometricPrecision; text-rendering:geometricPrecision; image-rendering:optimizeQuality; fill-rule:evenodd; clip-rule:evenodd"
viewBox="0 0 12.39 12.37"
 xmlns:xlink="http://www.w3.org/1999/xlink"
 xmlns:xodm="http://www.corel.com/coreldraw/odm/2003">
 <defs>
  <style type="text/css">
   <![CDATA[
    .fil0 {fill:#FEFEFE}
    .fil1 {fill:#FEFEFE;fill-rule:nonzero}
   ]]>
  </style>
 </defs>
 <g id="Layer_x0020_1">
  <metadata id="CorelCorpID_0Corel-Layer"/>
  <g id="_1371308085392">
   <path class="fil0" d="M9.54 6.03l2.25 0c0.73,-0.05 0.69,-0.84 0.12,-1.18 -0.57,-0.35 -0.53,-0.82 -0.2,-0.82l0.41 0c0,-0.34 -0.23,-0.53 -0.49,-0.71 -0.09,-0.05 -0.16,-0.15 -0.16,-0.26 0,-0.1 0.05,-0.19 0.13,-0.24 0.46,-0.19 0.79,-0.57 0.79,-1.18 0,-0.62 -0.42,-1.27 -1.12,-1.28l0 0.76 -0 0c-0.07,-0.67 -0.38,-1.11 -1.69,-1.11l0 0c-0.03,-0 -0.06,-0 -0.09,-0l-8.5 0c-0.13,0 -0.26,0.03 -0.38,0.08 -0.12,0.05 -0.23,0.12 -0.32,0.22 -0.09,0.09 -0.16,0.2 -0.22,0.32 -0.05,0.12 -0.08,0.24 -0.08,0.38l0 4.06c0,0.13 0.03,0.26 0.08,0.38 0.05,0.12 0.12,0.23 0.22,0.32 0.09,0.09 0.2,0.16 0.32,0.22 0.12,0.05 0.24,0.08 0.38,0.08l8.5 0c0.02,0 0.03,-0 0.05,-0zm-7.15 -1.34c-0.07,0.07 -0.19,0.07 -0.26,0 -0.07,-0.07 -0.07,-0.19 0,-0.26l2.1 -2.1c0.07,-0.07 0.19,-0.07 0.26,0l1.3 1.3 1.58 -1.58c-0.03,-0.07 -0.05,-0.14 -0.05,-0.22 0,-0.29 0.24,-0.53 0.53,-0.53 0.29,0 0.53,0.24 0.53,0.53 0,0.29 -0.24,0.53 -0.53,0.53 -0.08,0 -0.15,-0.02 -0.22,-0.05l-1.71 1.71c-0.07,0.07 -0.19,0.07 -0.26,0l-1.3 -1.3 -1.97 1.97zm7.7 -3.99l0 4.64c-0.03,0.07 -0.08,0.13 -0.13,0.19 -0.06,0.06 -0.14,0.11 -0.22,0.15 -0.08,0.03 -0.17,0.05 -0.26,0.05l-8.5 0c-0.09,0 -0.18,-0.02 -0.26,-0.05 -0.08,-0.03 -0.16,-0.08 -0.22,-0.15 -0.06,-0.06 -0.11,-0.14 -0.15,-0.22 -0.03,-0.08 -0.05,-0.17 -0.05,-0.26l0 -4.06c0,-0.09 0.02,-0.18 0.05,-0.26 0.03,-0.08 0.08,-0.16 0.15,-0.22 0.06,-0.06 0.14,-0.11 0.22,-0.15 0.08,-0.03 0.17,-0.05 0.26,-0.05l8.5 0c0.09,0 0.18,0.02 0.26,0.05 0.08,0.03 0.16,0.08 0.22,0.15 0.05,0.05 0.1,0.12 0.13,0.19z"/>
   <path class="fil1" d="M-0 12.04l0 -0.85 0.12 0 0 0.38 0.36 -0.38 0.15 0 -0.35 0.38 0.38 0.47 -0.16 0 -0.31 -0.39 -0.07 0.08 0 0.31 -0.12 0zm2.39 -1.78c-0.09,0 -0.17,-0.04 -0.22,-0.11l-1.14 -1.51 0.45 -0.46 1.18 1.57c0.05,0.06 0.07,0.13 0.07,0.2 0,0.09 -0.03,0.17 -0.1,0.23 -0.07,0.06 -0.15,0.09 -0.23,0.09zm0.06 -3.49c0.08,0 0.14,0.03 0.2,0.1 0.05,0.06 0.08,0.13 0.08,0.2 0,0.07 -0.03,0.13 -0.09,0.19l-2.08 1.99 -0.02 -0.71 1.67 -1.65c0.08,-0.08 0.16,-0.11 0.24,-0.11zm-2.14 3.49c-0.09,0 -0.17,-0.03 -0.22,-0.09 -0.06,-0.06 -0.08,-0.13 -0.08,-0.22l0 -2.86c0,-0.09 0.03,-0.16 0.09,-0.22 0.06,-0.06 0.14,-0.09 0.23,-0.09 0.09,0 0.17,0.03 0.22,0.09 0.05,0.06 0.08,0.13 0.08,0.22l0 2.86c0,0.09 -0.03,0.16 -0.08,0.22 -0.06,0.06 -0.13,0.09 -0.23,0.09zm5.36 -1.32c0,0.27 -0.06,0.51 -0.18,0.72 -0.12,0.21 -0.28,0.37 -0.49,0.48 -0.2,0.12 -0.43,0.17 -0.68,0.17 -0.25,0 -0.48,-0.06 -0.68,-0.17 -0.2,-0.12 -0.36,-0.28 -0.49,-0.48 -0.12,-0.21 -0.18,-0.45 -0.18,-0.72 0,-0.27 0.06,-0.51 0.18,-0.72 0.12,-0.21 0.28,-0.37 0.49,-0.49 0.2,-0.12 0.43,-0.18 0.68,-0.18 0.25,0 0.48,0.06 0.68,0.18 0.2,0.12 0.37,0.28 0.49,0.49 0.12,0.21 0.18,0.45 0.18,0.72zm-0.59 0c0,-0.17 -0.03,-0.31 -0.1,-0.44 -0.07,-0.12 -0.16,-0.22 -0.27,-0.29 -0.11,-0.07 -0.24,-0.1 -0.38,-0.1 -0.14,0 -0.27,0.03 -0.38,0.1 -0.11,0.07 -0.2,0.17 -0.27,0.29 -0.07,0.12 -0.1,0.27 -0.1,0.44 0,0.17 0.03,0.31 0.1,0.43 0.07,0.12 0.16,0.22 0.27,0.29 0.11,0.07 0.24,0.1 0.38,0.1 0.14,0 0.27,-0.03 0.38,-0.1 0.11,-0.07 0.2,-0.17 0.27,-0.29 0.07,-0.12 0.1,-0.27 0.1,-0.43zm4.32 -2.16c0.08,0 0.14,0.03 0.21,0.09 0.06,0.06 0.09,0.13 0.09,0.22 0,0.03 -0,0.06 -0.01,0.09 -0.01,0.03 -0.02,0.06 -0.04,0.09l-1.12 1.61 0.09 -0.34 0 1.42c0,0.09 -0.03,0.16 -0.09,0.22 -0.06,0.06 -0.12,0.09 -0.2,0.09 -0.08,0 -0.15,-0.03 -0.21,-0.09 -0.06,-0.06 -0.09,-0.13 -0.09,-0.22l0 -1.38 0.04 0.16 -1.07 -1.42c-0.03,-0.04 -0.06,-0.08 -0.07,-0.12 -0.01,-0.04 -0.02,-0.08 -0.02,-0.11 0,-0.09 0.03,-0.16 0.1,-0.22 0.07,-0.06 0.14,-0.08 0.21,-0.08 0.09,0 0.17,0.05 0.24,0.14l0.95 1.31 -0.14 -0.02 0.88 -1.28c0.07,-0.1 0.15,-0.15 0.25,-0.15zm2.71 0.78c0.09,0 0.16,0.03 0.21,0.08 0.06,0.06 0.08,0.13 0.08,0.22l0 2.1c0,0.09 -0.03,0.16 -0.08,0.22 -0.06,0.06 -0.13,0.09 -0.21,0.09 -0.09,0 -0.16,-0.03 -0.21,-0.09 -0.06,-0.06 -0.08,-0.13 -0.08,-0.22l0 -0.24 0.11 0.04c0,0.04 -0.02,0.09 -0.07,0.16 -0.05,0.06 -0.11,0.12 -0.19,0.18 -0.08,0.06 -0.17,0.11 -0.28,0.15 -0.11,0.04 -0.22,0.06 -0.35,0.06 -0.23,0 -0.43,-0.06 -0.62,-0.18 -0.18,-0.12 -0.33,-0.28 -0.44,-0.49 -0.11,-0.21 -0.16,-0.44 -0.16,-0.71 0,-0.27 0.05,-0.51 0.16,-0.72 0.11,-0.21 0.25,-0.37 0.43,-0.49 0.18,-0.12 0.38,-0.18 0.6,-0.18 0.14,0 0.27,0.02 0.39,0.06 0.12,0.04 0.22,0.1 0.31,0.16 0.09,0.07 0.16,0.13 0.2,0.2 0.05,0.07 0.07,0.12 0.07,0.17l-0.18 0.06 0 -0.36c0,-0.09 0.03,-0.16 0.08,-0.22 0.06,-0.06 0.13,-0.09 0.21,-0.09zm-1 2.2c0.15,0 0.27,-0.04 0.38,-0.11 0.11,-0.07 0.19,-0.17 0.26,-0.3 0.06,-0.13 0.09,-0.27 0.09,-0.42 0,-0.16 -0.03,-0.3 -0.09,-0.43 -0.06,-0.13 -0.15,-0.22 -0.26,-0.3 -0.11,-0.07 -0.24,-0.11 -0.38,-0.11 -0.14,0 -0.27,0.04 -0.38,0.11 -0.11,0.07 -0.19,0.17 -0.26,0.3 -0.06,0.13 -0.09,0.27 -0.09,0.43 0,0.16 0.03,0.3 0.09,0.42 0.06,0.13 0.15,0.22 0.26,0.3 0.11,0.07 0.23,0.11 0.38,0.11zm-9.51 1.95c0,0.05 -0.01,0.1 -0.02,0.14 -0.02,0.04 -0.04,0.08 -0.07,0.11 -0.03,0.03 -0.06,0.05 -0.1,0.07 -0.04,0.01 -0.08,0.02 -0.12,0.02 -0.04,0 -0.08,-0.01 -0.12,-0.02 -0.04,-0.01 -0.07,-0.03 -0.1,-0.06 -0.03,-0.03 -0.05,-0.06 -0.06,-0.1 -0.02,-0.04 -0.02,-0.09 -0.02,-0.14 0,-0.05 0.01,-0.1 0.02,-0.14 0.02,-0.04 0.04,-0.08 0.07,-0.1 0.03,-0.03 0.06,-0.05 0.1,-0.06 0.04,-0.01 0.08,-0.02 0.12,-0.02 0.04,0 0.08,0.01 0.12,0.02 0.04,0.01 0.07,0.03 0.1,0.06 0.03,0.03 0.05,0.06 0.06,0.1 0.02,0.04 0.02,0.09 0.02,0.14zm-0.12 0.01c0,-0.04 -0.01,-0.08 -0.02,-0.11 -0.01,-0.03 -0.02,-0.05 -0.04,-0.07 -0.02,-0.02 -0.04,-0.03 -0.06,-0.04 -0.02,-0.01 -0.05,-0.01 -0.07,-0.01 -0.02,0 -0.05,0 -0.07,0.01 -0.02,0.01 -0.04,0.02 -0.06,0.04 -0.02,0.02 -0.03,0.04 -0.04,0.07 -0.01,0.03 -0.02,0.07 -0.02,0.11 0,0.04 0.01,0.08 0.02,0.11 0.01,0.03 0.02,0.05 0.04,0.07 0.02,0.02 0.04,0.03 0.06,0.04 0.02,0.01 0.05,0.01 0.07,0.01 0.02,0 0.05,-0 0.07,-0.01 0.02,-0.01 0.04,-0.02 0.06,-0.04 0.02,-0.02 0.03,-0.04 0.04,-0.07 0.01,-0.03 0.02,-0.07 0.02,-0.11zm0.66 0.32l-0.12 0 0 -0.63 0.09 0 0.02 0.09c0.03,-0.03 0.06,-0.06 0.1,-0.07 0.03,-0.02 0.07,-0.02 0.12,-0.02 0.06,0 0.12,0.02 0.15,0.05 0.04,0.04 0.06,0.09 0.06,0.15l0 0.44 -0.12 0 0 -0.42c0,-0.04 -0.01,-0.07 -0.03,-0.09 -0.02,-0.02 -0.05,-0.03 -0.09,-0.03 -0.06,0 -0.12,0.03 -0.18,0.08l0 0.46zm1.2 -0.54l-0.19 0 0 0.37c0,0.03 0.01,0.05 0.02,0.06 0.02,0.01 0.04,0.02 0.06,0.02 0.02,0 0.04,-0 0.06,-0.01 0.02,-0 0.04,-0.01 0.06,-0.01l0.02 0.09c-0.02,0.01 -0.04,0.01 -0.07,0.02 -0.03,0.01 -0.06,0.01 -0.09,0.01 -0.06,0 -0.11,-0.01 -0.14,-0.04 -0.03,-0.03 -0.04,-0.07 -0.04,-0.12l0 -0.38 -0.09 0 0 -0.09 0.09 0 0 -0.2 0.12 0 0 0.2 0.19 0 0 0.09zm0.43 0.54l0 -0.63 0.09 0 0.02 0.13c0.02,-0.04 0.04,-0.07 0.08,-0.1 0.03,-0.03 0.08,-0.04 0.12,-0.04 0.02,0 0.04,0 0.06,0.01 0.02,0 0.03,0.01 0.04,0.01l-0.02 0.1c-0.01,-0.01 -0.02,-0.01 -0.04,-0.01 -0.01,-0 -0.03,-0.01 -0.05,-0.01 -0.03,0 -0.05,0 -0.07,0.01 -0.02,0.01 -0.04,0.02 -0.06,0.04 -0.02,0.02 -0.03,0.04 -0.04,0.07 -0.01,0.03 -0.01,0.06 -0.01,0.09l0 0.33 -0.12 0zm1.32 -0.32c0,0.05 -0.01,0.1 -0.02,0.14 -0.02,0.04 -0.04,0.08 -0.07,0.11 -0.03,0.03 -0.06,0.05 -0.1,0.07 -0.04,0.01 -0.08,0.02 -0.12,0.02 -0.04,0 -0.08,-0.01 -0.12,-0.02 -0.04,-0.01 -0.07,-0.03 -0.1,-0.06 -0.03,-0.03 -0.05,-0.06 -0.06,-0.1 -0.02,-0.04 -0.02,-0.09 -0.02,-0.14 0,-0.05 0.01,-0.1 0.02,-0.14 0.02,-0.04 0.04,-0.08 0.07,-0.1 0.03,-0.03 0.06,-0.05 0.1,-0.06 0.04,-0.01 0.08,-0.02 0.12,-0.02 0.04,0 0.08,0.01 0.12,0.02 0.04,0.01 0.07,0.03 0.1,0.06 0.03,0.03 0.05,0.06 0.06,0.1 0.02,0.04 0.02,0.09 0.02,0.14zm-0.12 0.01c0,-0.04 -0.01,-0.08 -0.02,-0.11 -0.01,-0.03 -0.02,-0.05 -0.04,-0.07 -0.02,-0.02 -0.04,-0.03 -0.06,-0.04 -0.02,-0.01 -0.05,-0.01 -0.07,-0.01 -0.02,0 -0.05,0 -0.07,0.01 -0.02,0.01 -0.04,0.02 -0.06,0.04 -0.02,0.02 -0.03,0.04 -0.04,0.07 -0.01,0.03 -0.02,0.07 -0.02,0.11 0,0.04 0.01,0.08 0.02,0.11 0.01,0.03 0.02,0.05 0.04,0.07 0.02,0.02 0.04,0.03 0.06,0.04 0.02,0.01 0.05,0.01 0.07,0.01 0.02,0 0.05,-0 0.07,-0.01 0.02,-0.01 0.04,-0.02 0.06,-0.04 0.02,-0.02 0.03,-0.04 0.04,-0.07 0.01,-0.03 0.02,-0.07 0.02,-0.11zm0.55 0.32l0 -0.96 0.12 0 0 0.96 -0.12 0zm1.48 -0.85l0.11 0 0.34 0.85 -0.13 0 -0.09 -0.24 -0.35 0 -0.09 0.24 -0.13 0 0.34 -0.85zm-0.09 0.51l0.28 0 -0.06 -0.15c-0.02,-0.04 -0.03,-0.08 -0.04,-0.11 -0.01,-0.04 -0.03,-0.07 -0.04,-0.11l-0 0c-0.01,0.04 -0.03,0.07 -0.04,0.11 -0.01,0.03 -0.03,0.07 -0.04,0.11l-0.06 0.15zm0.78 -0.3l0.13 0 0.13 0.36 0.05 0.15 0 0 0.05 -0.15 0.12 -0.36 0.12 0 -0.24 0.69c-0.03,0.08 -0.06,0.14 -0.1,0.18 -0.04,0.04 -0.09,0.07 -0.15,0.09l-0.05 -0.09c0.04,-0.02 0.08,-0.04 0.11,-0.07 0.03,-0.03 0.06,-0.07 0.08,-0.13l0.01 -0.04 -0.26 -0.63zm0.97 0.06c0.02,-0.01 0.04,-0.02 0.06,-0.03 0.02,-0.01 0.04,-0.02 0.06,-0.02 0.02,-0.01 0.04,-0.01 0.06,-0.01 0.02,-0 0.04,-0 0.06,-0 0.03,0 0.07,0 0.1,0.01 0.03,0.01 0.05,0.02 0.08,0.04 0.02,0.02 0.04,0.04 0.05,0.07 0.01,0.03 0.02,0.07 0.02,0.11l0 0.41 -0.1 0 -0.01 -0.07 -0 0c-0.03,0.03 -0.06,0.05 -0.09,0.06 -0.03,0.01 -0.07,0.02 -0.11,0.02 -0.03,0 -0.06,-0 -0.08,-0.01 -0.03,-0.01 -0.05,-0.02 -0.07,-0.04 -0.02,-0.02 -0.03,-0.03 -0.04,-0.06 -0.01,-0.02 -0.02,-0.05 -0.02,-0.08 0,-0.07 0.03,-0.12 0.08,-0.15 0.05,-0.03 0.12,-0.05 0.21,-0.05l0.12 0 0 -0.05c0,-0.05 -0.01,-0.08 -0.04,-0.09 -0.02,-0.02 -0.05,-0.02 -0.09,-0.02 -0.02,0 -0.05,0 -0.08,0.01 -0.03,0.01 -0.06,0.02 -0.1,0.04l-0.05 -0.09zm0.36 0.28l-0.1 0c-0.07,0 -0.12,0.01 -0.14,0.04 -0.03,0.02 -0.04,0.05 -0.04,0.08 0,0.02 0,0.03 0.01,0.05 0.01,0.01 0.01,0.02 0.02,0.03 0.01,0.01 0.02,0.01 0.04,0.02 0.01,0 0.03,0 0.04,0 0.03,0 0.06,-0.01 0.09,-0.02 0.03,-0.01 0.06,-0.04 0.08,-0.07l0 -0.13zm0.69 0.29l-0.12 0 0 -0.63 0.09 0 0.02 0.09c0.03,-0.03 0.06,-0.05 0.1,-0.07 0.03,-0.02 0.07,-0.03 0.12,-0.03 0.04,0 0.08,0.01 0.11,0.03 0.03,0.02 0.05,0.04 0.06,0.08 0.03,-0.03 0.07,-0.06 0.1,-0.08 0.04,-0.02 0.08,-0.03 0.13,-0.03 0.06,0 0.11,0.02 0.15,0.05 0.03,0.04 0.05,0.09 0.05,0.15l0 0.44 -0.12 0 0 -0.41c0,-0.04 -0.01,-0.07 -0.03,-0.1 -0.02,-0.02 -0.05,-0.03 -0.09,-0.03 -0.06,0 -0.12,0.03 -0.17,0.08 0,0 0,0.01 0,0.01 0,0 0,0.01 0,0.01l0 0.44 -0.12 0 0 -0.41c0,-0.04 -0.01,-0.07 -0.03,-0.1 -0.02,-0.02 -0.05,-0.03 -0.09,-0.03 -0.06,0 -0.12,0.03 -0.17,0.09l0 0.46zm1.38 -0.23l0 0.23 -0.12 0 0 -0.96 0.12 0 0 0.59 0.25 -0.27 0.15 0 -0.26 0.27 0.27 0.37 -0.14 0 -0.21 -0.29 -0.06 0.06zm1.21 -0.4l0.12 0 0 0.63 -0.09 0 -0.02 -0.08 -0.01 0c-0.02,0.03 -0.05,0.05 -0.09,0.07 -0.03,0.02 -0.07,0.03 -0.12,0.03 -0.07,0 -0.12,-0.02 -0.16,-0.06 -0.04,-0.04 -0.06,-0.09 -0.06,-0.17l0 -0.42 0.12 0 0 0.41c0,0.03 0,0.05 0.01,0.07 0.01,0.02 0.02,0.03 0.03,0.05 0.01,0.01 0.02,0.02 0.04,0.02 0.02,0 0.03,0.01 0.05,0.01 0.04,0 0.07,-0.01 0.1,-0.02 0.03,-0.02 0.06,-0.04 0.08,-0.06l0 -0.46z"/>
  </g>
 </g>
</svg>
