<?xml version="1.0" encoding="UTF-8"?>
<!DOCTYPE svg PUBLIC "-//W3C//DTD SVG 1.1//EN" "http://www.w3.org/Graphics/SVG/1.1/DTD/svg11.dtd">
<!-- Creator: CorelDRAW 2020 (64-Bit) -->
<svg xmlns="http://www.w3.org/2000/svg" xml:space="preserve" width="3.7382in" height="0.833335in" version="1.1" style="shape-rendering:geometricPrecision; text-rendering:geometricPrecision; image-rendering:optimizeQuality; fill-rule:evenodd; clip-rule:evenodd"
viewBox="0 0 205.55 45.82"
 xmlns:xlink="http://www.w3.org/1999/xlink"
 xmlns:xodm="http://www.corel.com/coreldraw/odm/2003">
 <defs>
  <style type="text/css">
   <![CDATA[
    .fil1 {fill:#F79E2A}
    .fil0 {fill:#F79E2A;fill-rule:nonzero}
   ]]>
  </style>
 </defs>
 <g id="Layer_x0020_1">
  <metadata id="CorelCorpID_0Corel-Layer"/>
  <g id="_2262622468144">
   <path class="fil0" d="M110.9 41.8l0 -6.48 0.95 0 0 2.93 2.73 -2.93 1.17 0 -2.67 2.87 2.88 3.61 -1.19 0 -2.37 -2.96 -0.55 0.59 0 2.38 -0.95 0zm18.25 -13.58c-0.71,0 -1.27,-0.29 -1.7,-0.87l-8.75 -11.51 3.45 -3.52 9.05 11.96c0.35,0.48 0.53,1 0.53,1.55 0,0.71 -0.26,1.28 -0.8,1.72 -0.53,0.44 -1.12,0.66 -1.78,0.66zm0.45 -26.69c0.61,0 1.1,0.25 1.5,0.74 0.39,0.49 0.59,0.99 0.59,1.5 0,0.53 -0.23,1.02 -0.68,1.48l-15.86 15.18 -0.19 -5.41 12.8 -12.61c0.58,-0.58 1.2,-0.87 1.86,-0.87zm-16.36 26.69c-0.71,0 -1.27,-0.22 -1.7,-0.66 -0.43,-0.44 -0.64,-0.99 -0.64,-1.65l0 -21.88c0,-0.66 0.23,-1.21 0.68,-1.65 0.45,-0.44 1.04,-0.66 1.74,-0.66 0.71,0 1.27,0.22 1.68,0.66 0.42,0.44 0.62,0.99 0.62,1.65l0 21.88c0,0.66 -0.21,1.21 -0.64,1.65 -0.43,0.44 -1.01,0.66 -1.74,0.66zm40.93 -10.11c0,2.07 -0.46,3.89 -1.38,5.47 -0.92,1.58 -2.16,2.81 -3.71,3.69 -1.55,0.88 -3.29,1.33 -5.21,1.33 -1.92,0 -3.65,-0.44 -5.21,-1.33 -1.55,-0.88 -2.79,-2.11 -3.71,-3.69 -0.92,-1.58 -1.38,-3.4 -1.38,-5.47 0,-2.07 0.46,-3.89 1.38,-5.47 0.92,-1.58 2.16,-2.81 3.71,-3.71 1.55,-0.9 3.29,-1.34 5.21,-1.34 1.92,0 3.65,0.45 5.21,1.34 1.55,0.9 2.79,2.13 3.71,3.71 0.92,1.58 1.38,3.4 1.38,5.47zm-4.54 0c0,-1.29 -0.26,-2.4 -0.78,-3.35 -0.52,-0.95 -1.21,-1.68 -2.08,-2.21 -0.87,-0.53 -1.84,-0.79 -2.9,-0.79 -1.06,0 -2.03,0.26 -2.9,0.79 -0.87,0.53 -1.56,1.27 -2.08,2.21 -0.52,0.95 -0.78,2.06 -0.78,3.35 0,1.26 0.26,2.37 0.78,3.31 0.52,0.95 1.21,1.68 2.08,2.21 0.87,0.53 1.84,0.8 2.9,0.8 1.06,0 2.03,-0.26 2.9,-0.8 0.87,-0.53 1.56,-1.27 2.08,-2.21 0.52,-0.95 0.78,-2.05 0.78,-3.31zm32.98 -16.51c0.58,0 1.1,0.22 1.57,0.66 0.47,0.44 0.7,1 0.7,1.68 0,0.23 -0.03,0.46 -0.09,0.7 -0.06,0.24 -0.17,0.47 -0.32,0.7l-8.59 12.3 0.68 -2.61 0 10.87c0,0.66 -0.22,1.21 -0.66,1.65 -0.44,0.44 -0.95,0.66 -1.53,0.66 -0.63,0 -1.17,-0.22 -1.61,-0.66 -0.44,-0.44 -0.66,-0.99 -0.66,-1.65l0 -10.56 0.3 1.21 -8.18 -10.87c-0.25,-0.33 -0.43,-0.64 -0.53,-0.95 -0.1,-0.3 -0.15,-0.58 -0.15,-0.83 0,-0.68 0.27,-1.24 0.8,-1.67 0.53,-0.43 1.07,-0.64 1.63,-0.64 0.71,0 1.33,0.35 1.86,1.06l7.27 10.03 -1.06 -0.15 6.7 -9.81c0.53,-0.76 1.16,-1.14 1.89,-1.14zm20.67 5.98c0.66,0 1.2,0.21 1.63,0.64 0.43,0.43 0.64,0.98 0.64,1.67l0 16.01c0,0.66 -0.21,1.21 -0.64,1.65 -0.43,0.44 -0.97,0.66 -1.63,0.66 -0.66,0 -1.2,-0.22 -1.63,-0.66 -0.43,-0.44 -0.64,-0.99 -0.64,-1.65l0 -1.86 0.83 0.34c0,0.33 -0.18,0.73 -0.53,1.19 -0.35,0.47 -0.83,0.93 -1.44,1.38 -0.61,0.45 -1.32,0.84 -2.14,1.15 -0.82,0.32 -1.71,0.47 -2.67,0.47 -1.74,0 -3.32,-0.45 -4.73,-1.34 -1.41,-0.9 -2.53,-2.13 -3.35,-3.71 -0.82,-1.58 -1.23,-3.39 -1.23,-5.43 0,-2.07 0.41,-3.89 1.23,-5.47 0.82,-1.58 1.92,-2.81 3.31,-3.71 1.39,-0.9 2.93,-1.34 4.62,-1.34 1.09,0 2.08,0.16 2.99,0.49 0.91,0.33 1.7,0.74 2.37,1.25 0.67,0.5 1.19,1.02 1.55,1.53 0.37,0.52 0.55,0.95 0.55,1.31l-1.36 0.49 0 -2.76c0,-0.66 0.21,-1.21 0.64,-1.65 0.43,-0.44 0.97,-0.66 1.63,-0.66zm-7.65 16.85c1.11,0 2.08,-0.28 2.92,-0.83 0.83,-0.56 1.48,-1.31 1.95,-2.27 0.47,-0.96 0.7,-2.03 0.7,-3.22 0,-1.21 -0.23,-2.3 -0.7,-3.26 -0.47,-0.96 -1.12,-1.72 -1.95,-2.27 -0.83,-0.56 -1.8,-0.83 -2.92,-0.83 -1.09,0 -2.04,0.28 -2.88,0.83 -0.83,0.56 -1.48,1.31 -1.95,2.27 -0.47,0.96 -0.7,2.04 -0.7,3.26 0,1.19 0.23,2.26 0.7,3.22 0.47,0.96 1.12,1.72 1.95,2.27 0.83,0.56 1.79,0.83 2.88,0.83zm-72.71 14.9c0,0.4 -0.06,0.77 -0.19,1.09 -0.12,0.32 -0.29,0.59 -0.51,0.81 -0.22,0.22 -0.47,0.39 -0.76,0.5 -0.29,0.11 -0.6,0.17 -0.94,0.17 -0.34,0 -0.65,-0.05 -0.93,-0.16 -0.28,-0.11 -0.53,-0.26 -0.74,-0.47 -0.21,-0.21 -0.37,-0.47 -0.49,-0.77 -0.12,-0.31 -0.18,-0.66 -0.18,-1.05 0,-0.4 0.06,-0.76 0.19,-1.08 0.12,-0.32 0.29,-0.58 0.51,-0.8 0.22,-0.22 0.47,-0.38 0.76,-0.49 0.29,-0.11 0.6,-0.17 0.94,-0.17 0.34,0 0.65,0.05 0.93,0.15 0.28,0.1 0.53,0.26 0.74,0.46 0.21,0.21 0.37,0.46 0.49,0.77 0.12,0.31 0.18,0.66 0.18,1.05zm-0.95 0.05c0,-0.32 -0.04,-0.6 -0.12,-0.82 -0.08,-0.23 -0.19,-0.41 -0.32,-0.56 -0.13,-0.14 -0.29,-0.25 -0.46,-0.31 -0.17,-0.07 -0.35,-0.1 -0.52,-0.1 -0.18,0 -0.35,0.03 -0.52,0.08 -0.17,0.05 -0.32,0.15 -0.45,0.29 -0.13,0.14 -0.23,0.32 -0.31,0.55 -0.08,0.23 -0.12,0.52 -0.12,0.87 0,0.32 0.04,0.6 0.12,0.83 0.08,0.23 0.19,0.42 0.32,0.56 0.13,0.14 0.29,0.25 0.46,0.32 0.17,0.07 0.35,0.1 0.52,0.1 0.18,0 0.35,-0.03 0.52,-0.09 0.17,-0.06 0.32,-0.16 0.45,-0.3 0.13,-0.14 0.23,-0.33 0.31,-0.56 0.08,-0.23 0.12,-0.52 0.12,-0.87zm5.05 2.42l-0.91 0 0 -4.83 0.71 0 0.13 0.67c0.24,-0.24 0.49,-0.42 0.76,-0.55 0.26,-0.13 0.57,-0.19 0.91,-0.19 0.49,0 0.88,0.14 1.16,0.42 0.28,0.28 0.42,0.66 0.42,1.16l0 3.33 -0.91 0 0 -3.2c0,-0.3 -0.08,-0.53 -0.23,-0.7 -0.15,-0.17 -0.39,-0.26 -0.7,-0.26 -0.48,0 -0.93,0.22 -1.35,0.65l0 3.52zm9.18 -4.16l-1.42 0 0 2.81c0,0.24 0.06,0.4 0.18,0.48 0.12,0.08 0.28,0.12 0.47,0.12 0.14,0 0.29,-0.02 0.45,-0.05 0.16,-0.03 0.31,-0.07 0.43,-0.11l0.14 0.69c-0.14,0.05 -0.31,0.1 -0.52,0.14 -0.21,0.04 -0.44,0.06 -0.67,0.06 -0.48,0 -0.83,-0.1 -1.05,-0.31 -0.22,-0.21 -0.33,-0.51 -0.33,-0.91l0 -2.93 -0.72 0 0 -0.68 0.72 0 0 -1.54 0.89 0 0 1.54 1.42 0 0 0.68zm3.28 4.16l0 -4.83 0.68 0 0.15 0.97c0.12,-0.31 0.31,-0.56 0.58,-0.75 0.27,-0.19 0.58,-0.29 0.93,-0.29 0.18,0 0.33,0.01 0.44,0.04 0.12,0.03 0.22,0.06 0.32,0.1l-0.17 0.79c-0.08,-0.04 -0.17,-0.08 -0.27,-0.1 -0.1,-0.03 -0.22,-0.04 -0.36,-0.04 -0.2,0 -0.38,0.03 -0.55,0.1 -0.17,0.07 -0.32,0.17 -0.44,0.31 -0.13,0.14 -0.23,0.31 -0.3,0.51 -0.07,0.2 -0.11,0.43 -0.11,0.69l0 2.5 -0.89 0zm10.12 -2.47c0,0.4 -0.06,0.77 -0.19,1.09 -0.12,0.32 -0.29,0.59 -0.51,0.81 -0.22,0.22 -0.47,0.39 -0.76,0.5 -0.29,0.11 -0.6,0.17 -0.94,0.17 -0.34,0 -0.65,-0.05 -0.93,-0.16 -0.28,-0.11 -0.53,-0.26 -0.74,-0.47 -0.21,-0.21 -0.37,-0.47 -0.49,-0.77 -0.12,-0.31 -0.18,-0.66 -0.18,-1.05 0,-0.4 0.06,-0.76 0.19,-1.08 0.12,-0.32 0.29,-0.58 0.51,-0.8 0.22,-0.22 0.47,-0.38 0.76,-0.49 0.29,-0.11 0.6,-0.17 0.94,-0.17 0.34,0 0.65,0.05 0.93,0.15 0.28,0.1 0.53,0.26 0.74,0.46 0.21,0.21 0.37,0.46 0.49,0.77 0.12,0.31 0.18,0.66 0.18,1.05zm-0.95 0.05c0,-0.32 -0.04,-0.6 -0.12,-0.82 -0.08,-0.23 -0.19,-0.41 -0.32,-0.56 -0.13,-0.14 -0.29,-0.25 -0.46,-0.31 -0.17,-0.07 -0.35,-0.1 -0.52,-0.1 -0.18,0 -0.35,0.03 -0.52,0.08 -0.17,0.05 -0.32,0.15 -0.45,0.29 -0.13,0.14 -0.23,0.32 -0.31,0.55 -0.08,0.23 -0.12,0.52 -0.12,0.87 0,0.32 0.04,0.6 0.12,0.83 0.08,0.23 0.19,0.42 0.32,0.56 0.13,0.14 0.29,0.25 0.46,0.32 0.17,0.07 0.35,0.1 0.52,0.1 0.18,0 0.35,-0.03 0.52,-0.09 0.17,-0.06 0.32,-0.16 0.45,-0.3 0.13,-0.14 0.23,-0.33 0.31,-0.56 0.08,-0.23 0.12,-0.52 0.12,-0.87zm4.19 2.42l0 -7.3 0.88 0 0 7.3 -0.88 0zm11.34 -6.48l0.84 0 2.58 6.48 -0.99 0 -0.71 -1.8 -2.66 0 -0.7 1.8 -0.98 0 2.61 -6.48zm-0.68 3.93l2.13 0 -0.43 -1.12c-0.12,-0.29 -0.22,-0.58 -0.32,-0.85 -0.1,-0.27 -0.19,-0.56 -0.29,-0.84l-0.02 0c-0.1,0.29 -0.2,0.57 -0.3,0.83 -0.1,0.27 -0.21,0.56 -0.33,0.86l-0.44 1.12zm5.95 -2.28l0.97 0 1.03 2.77 0.35 1.15 0.02 0 0.35 -1.15 0.94 -2.77 0.93 0 -1.86 5.25c-0.21,0.58 -0.46,1.04 -0.78,1.37 -0.31,0.33 -0.68,0.57 -1.12,0.72l-0.39 -0.72c0.32,-0.12 0.61,-0.3 0.86,-0.53 0.25,-0.23 0.44,-0.56 0.58,-0.97l0.09 -0.28 -1.96 -4.83zm7.4 0.43c0.16,-0.08 0.32,-0.16 0.46,-0.22 0.14,-0.07 0.29,-0.12 0.43,-0.16 0.14,-0.04 0.29,-0.07 0.44,-0.09 0.15,-0.02 0.32,-0.03 0.49,-0.03 0.27,0 0.51,0.03 0.74,0.09 0.22,0.06 0.42,0.16 0.58,0.29 0.16,0.14 0.29,0.32 0.38,0.54 0.09,0.22 0.13,0.5 0.13,0.84l0 3.15 -0.75 0 -0.11 -0.53 -0.02 0c-0.21,0.23 -0.45,0.39 -0.7,0.48 -0.25,0.1 -0.53,0.14 -0.84,0.14 -0.23,0 -0.45,-0.03 -0.64,-0.1 -0.2,-0.07 -0.37,-0.16 -0.51,-0.28 -0.14,-0.12 -0.26,-0.27 -0.33,-0.44 -0.08,-0.17 -0.12,-0.36 -0.12,-0.58 0,-0.51 0.2,-0.89 0.6,-1.16 0.4,-0.26 0.93,-0.4 1.59,-0.4l0.93 0 0 -0.41c0,-0.35 -0.09,-0.59 -0.27,-0.72 -0.18,-0.13 -0.42,-0.19 -0.72,-0.19 -0.18,0 -0.38,0.03 -0.61,0.09 -0.23,0.06 -0.49,0.17 -0.79,0.33l-0.35 -0.66zm2.75 2.17l-0.76 0.02c-0.51,0.01 -0.88,0.1 -1.1,0.27 -0.22,0.17 -0.32,0.37 -0.32,0.61 0,0.14 0.02,0.27 0.07,0.37 0.05,0.1 0.11,0.18 0.19,0.23 0.08,0.05 0.17,0.09 0.28,0.12 0.11,0.02 0.22,0.04 0.33,0.04 0.23,0 0.46,-0.05 0.69,-0.16 0.23,-0.11 0.44,-0.28 0.62,-0.51l0 -0.99zm5.24 2.23l-0.91 0 0 -4.83 0.7 0 0.13 0.67c0.23,-0.23 0.47,-0.41 0.73,-0.54 0.26,-0.13 0.57,-0.2 0.94,-0.2 0.34,0 0.62,0.07 0.84,0.21 0.22,0.14 0.38,0.33 0.49,0.58 0.24,-0.25 0.5,-0.45 0.79,-0.59 0.29,-0.14 0.61,-0.21 0.96,-0.21 0.49,0 0.87,0.14 1.12,0.42 0.25,0.28 0.38,0.66 0.38,1.16l0 3.33 -0.91 0 0 -3.17c0,-0.32 -0.07,-0.57 -0.21,-0.74 -0.14,-0.17 -0.36,-0.26 -0.68,-0.26 -0.47,0 -0.9,0.21 -1.31,0.63 0.01,0.03 0.01,0.07 0.01,0.1 0,0.03 0,0.07 0,0.1l0 3.33 -0.91 0 0 -3.17c0,-0.32 -0.07,-0.57 -0.21,-0.74 -0.14,-0.17 -0.36,-0.26 -0.68,-0.26 -0.47,0 -0.9,0.22 -1.3,0.66l0 3.51zm10.57 -1.77l0 1.77 -0.89 0 0 -7.3 0.89 0 0 4.55 1.94 -2.08 1.12 0 -1.99 2.04 2.08 2.8 -1.07 0 -1.6 -2.25 -0.48 0.48zm9.24 -3.07l0.91 0 0 4.83 -0.71 0 -0.12 -0.61 -0.04 0c-0.18,0.2 -0.4,0.37 -0.66,0.5 -0.26,0.13 -0.57,0.2 -0.92,0.2 -0.5,0 -0.91,-0.14 -1.22,-0.43 -0.31,-0.28 -0.47,-0.72 -0.47,-1.29l0 -3.21 0.91 0 0 3.1c0,0.21 0.03,0.38 0.08,0.52 0.05,0.14 0.12,0.26 0.21,0.34 0.09,0.09 0.19,0.15 0.3,0.19 0.12,0.04 0.24,0.06 0.38,0.06 0.27,0 0.52,-0.06 0.74,-0.17 0.22,-0.12 0.43,-0.28 0.63,-0.48l0 -3.55z"/>
   <path class="fil1" d="M72.48 45.81l17.06 0c5.58,-0.37 5.25,-6.37 0.91,-9 -4.34,-2.62 -4.02,-6.26 -1.54,-6.26l3.11 0c0,-2.56 -1.76,-4.03 -3.71,-5.42 -0.72,-0.37 -1.21,-1.11 -1.21,-1.97 0,-0.76 0.38,-1.43 0.97,-1.83 3.52,-1.46 6,-4.3 6,-8.98 0,-4.67 -3.21,-9.61 -8.49,-9.71l0 5.78 -0 0c-0.56,-5.1 -2.87,-8.41 -12.82,-8.41l0 0c-0.22,-0.02 -0.44,-0.03 -0.66,-0.03l-64.59 0c-1.01,0 -1.98,0.2 -2.86,0.57 -0.92,0.38 -1.75,0.94 -2.44,1.63 -0.69,0.69 -1.25,1.52 -1.63,2.44 -0.37,0.88 -0.57,1.85 -0.57,2.86l0 30.81c0,1.01 0.2,1.98 0.57,2.86 0.38,0.92 0.94,1.75 1.63,2.44 0.69,0.69 1.52,1.25 2.44,1.63 0.88,0.37 1.85,0.57 2.86,0.57l64.59 0c0.13,0 0.26,-0 0.39,-0.01zm-54.26 -10.21c-0.55,0.55 -1.45,0.55 -2,0 -0.55,-0.55 -0.55,-1.45 0,-2l15.94 -15.95c0.55,-0.55 1.45,-0.55 2,0l9.88 9.88 12.01 -12.01c-0.23,-0.51 -0.37,-1.08 -0.37,-1.68 0,-2.24 1.81,-4.05 4.05,-4.05 2.24,0 4.05,1.81 4.05,4.05 0,2.24 -1.81,4.05 -4.05,4.05 -0.6,0 -1.17,-0.13 -1.68,-0.37l-13.01 13.01c-0.55,0.55 -1.45,0.55 -2,0l-9.88 -9.88 -14.95 14.95zm58.51 -30.3l0 35.21c-0.25,0.53 -0.6,1.01 -1.01,1.43 -0.47,0.48 -1.04,0.86 -1.67,1.12 -0.6,0.25 -1.26,0.39 -1.96,0.39l-64.59 0c-0.69,0 -1.35,-0.14 -1.96,-0.39 -0.63,-0.26 -1.19,-0.64 -1.67,-1.12 -0.48,-0.47 -0.86,-1.04 -1.12,-1.67 -0.25,-0.6 -0.39,-1.26 -0.39,-1.96l0 -30.81c0,-0.69 0.14,-1.35 0.39,-1.96 0.26,-0.63 0.64,-1.19 1.12,-1.67 0.48,-0.48 1.04,-0.86 1.67,-1.12 0.6,-0.25 1.26,-0.39 1.96,-0.39l64.59 0c0.69,0 1.35,0.14 1.96,0.39 0.63,0.26 1.19,0.64 1.67,1.12 0.41,0.41 0.76,0.9 1.01,1.43z"/>
  </g>
 </g>
</svg>
