<?xml version="1.0" encoding="UTF-8"?>
<!DOCTYPE svg PUBLIC "-//W3C//DTD SVG 1.1//EN" "http://www.w3.org/Graphics/SVG/1.1/DTD/svg11.dtd">
<!-- Creator: CorelDRAW 2020 (64-Bit) -->
<svg xmlns="http://www.w3.org/2000/svg" xml:space="preserve" width="3.30732in" height="3.30224in" version="1.1" style="shape-rendering:geometricPrecision; text-rendering:geometricPrecision; image-rendering:optimizeQuality; fill-rule:evenodd; clip-rule:evenodd"
viewBox="0 0 158.4 158.16"
 xmlns:xlink="http://www.w3.org/1999/xlink"
 xmlns:xodm="http://www.corel.com/coreldraw/odm/2003">
 <defs>
  <style type="text/css">
   <![CDATA[
    .fil0 {fill:white}
    .fil1 {fill:white;fill-rule:nonzero}
   ]]>
  </style>
 </defs>
 <g id="Layer_x0020_1">
  <metadata id="CorelCorpID_0Corel-Layer"/>
  <path class="fil0" d="M122.06 77.15l28.73 0c9.4,-0.63 8.84,-10.74 1.53,-15.15 -7.31,-4.41 -6.77,-10.53 -2.59,-10.53l5.24 0c0,-4.3 -2.97,-6.78 -6.25,-9.13 -1.21,-0.61 -2.04,-1.87 -2.04,-3.32 0,-1.28 0.64,-2.4 1.63,-3.07 5.93,-2.46 10.1,-7.24 10.1,-15.11 0,-7.87 -5.41,-16.18 -14.29,-16.35l0 9.74 -0 0c-0.94,-8.59 -4.83,-14.17 -21.59,-14.17l0 0c-0.37,-0.03 -0.74,-0.05 -1.11,-0.05l-108.76 0c-1.7,0 -3.33,0.34 -4.82,0.96 -1.55,0.64 -2.94,1.58 -4.11,2.75 -1.17,1.17 -2.11,2.56 -2.75,4.11 -0.62,1.49 -0.96,3.12 -0.96,4.82l0 51.89c0,1.7 0.34,3.33 0.96,4.82 0.64,1.55 1.58,2.94 2.75,4.11 1.17,1.17 2.56,2.11 4.11,2.75 1.49,0.62 3.12,0.96 4.82,0.96l108.76 0c0.22,0 0.44,-0.01 0.66,-0.02zm-91.38 -17.19c-0.93,0.93 -2.44,0.93 -3.36,0 -0.93,-0.93 -0.93,-2.44 0,-3.36l26.85 -26.85c0.93,-0.93 2.44,-0.93 3.36,0l16.64 16.64 20.22 -20.22c-0.4,-0.86 -0.62,-1.82 -0.62,-2.84 0,-3.76 3.05,-6.82 6.82,-6.82 3.76,0 6.82,3.05 6.82,6.82 0,3.76 -3.05,6.82 -6.82,6.82 -1.01,0 -1.97,-0.22 -2.84,-0.62l-21.91 21.91c-0.93,0.93 -2.44,0.93 -3.36,0l-16.64 -16.64 -25.17 25.17zm98.53 -51.02l0 59.29c-0.43,0.9 -1.01,1.71 -1.7,2.4 -0.8,0.8 -1.75,1.45 -2.81,1.89 -1.02,0.42 -2.13,0.66 -3.3,0.66l-108.76 0c-1.17,0 -2.28,-0.23 -3.3,-0.66 -1.06,-0.44 -2.01,-1.08 -2.81,-1.89 -0.8,-0.8 -1.45,-1.75 -1.89,-2.81 -0.42,-1.02 -0.66,-2.13 -0.66,-3.3l0 -51.89c0,-1.17 0.23,-2.28 0.66,-3.3 0.44,-1.06 1.08,-2.01 1.89,-2.81 0.8,-0.8 1.75,-1.45 2.81,-1.89 1.02,-0.42 2.13,-0.66 3.3,-0.66l108.76 0c1.17,0 2.28,0.23 3.3,0.66 1.06,0.44 2.01,1.08 2.81,1.89 0.7,0.7 1.28,1.51 1.7,2.4z"/>
  <path class="fil1" d="M-0 153.98l0 -10.85 1.58 0 0 4.91 4.56 -4.91 1.96 0 -4.48 4.8 4.82 6.04 -2 0 -3.96 -4.96 -0.91 0.98 0 3.98 -1.58 0zm30.54 -22.73c-1.18,0 -2.13,-0.49 -2.85,-1.46l-14.64 -19.26 5.77 -5.89 15.14 20.02c0.59,0.8 0.89,1.67 0.89,2.6 0,1.18 -0.44,2.14 -1.33,2.88 -0.89,0.74 -1.88,1.11 -2.98,1.11zm0.76 -44.67c1.01,0 1.85,0.41 2.5,1.24 0.65,0.82 0.98,1.66 0.98,2.5 0,0.89 -0.38,1.71 -1.14,2.47l-26.55 25.41 -0.32 -9.06 21.42 -21.1c0.97,-0.97 2.01,-1.46 3.1,-1.46zm-27.37 44.67c-1.18,0 -2.13,-0.37 -2.85,-1.11 -0.72,-0.74 -1.08,-1.66 -1.08,-2.76l0 -36.62c0,-1.1 0.38,-2.02 1.14,-2.76 0.76,-0.74 1.73,-1.11 2.91,-1.11 1.18,0 2.12,0.37 2.82,1.11 0.7,0.74 1.05,1.66 1.05,2.76l0 36.62c0,1.1 -0.36,2.02 -1.08,2.76 -0.72,0.74 -1.69,1.11 -2.91,1.11zm68.49 -16.92c0,3.46 -0.77,6.52 -2.31,9.16 -1.54,2.64 -3.61,4.7 -6.21,6.18 -2.6,1.48 -5.5,2.22 -8.71,2.22 -3.21,0 -6.11,-0.74 -8.71,-2.22 -2.6,-1.48 -4.67,-3.54 -6.21,-6.18 -1.54,-2.64 -2.31,-5.69 -2.31,-9.16 0,-3.46 0.77,-6.52 2.31,-9.16 1.54,-2.64 3.61,-4.71 6.21,-6.21 2.6,-1.5 5.5,-2.25 8.71,-2.25 3.21,0 6.11,0.75 8.71,2.25 2.6,1.5 4.67,3.57 6.21,6.21 1.54,2.64 2.31,5.69 2.31,9.16zm-7.6 0c0,-2.15 -0.43,-4.02 -1.3,-5.61 -0.87,-1.58 -2.03,-2.82 -3.48,-3.71 -1.46,-0.89 -3.07,-1.33 -4.85,-1.33 -1.77,0 -3.39,0.44 -4.85,1.33 -1.46,0.89 -2.62,2.12 -3.48,3.71 -0.87,1.58 -1.3,3.45 -1.3,5.61 0,2.11 0.43,3.96 1.3,5.54 0.87,1.58 2.03,2.82 3.48,3.71 1.46,0.89 3.07,1.33 4.85,1.33 1.77,0 3.39,-0.44 4.85,-1.33 1.46,-0.89 2.62,-2.12 3.48,-3.71 0.87,-1.58 1.3,-3.43 1.3,-5.54zm55.19 -27.63c0.97,0 1.85,0.37 2.63,1.11 0.78,0.74 1.17,1.68 1.17,2.82 0,0.38 -0.05,0.77 -0.16,1.17 -0.11,0.4 -0.29,0.79 -0.54,1.17l-14.38 20.59 1.14 -4.37 0 18.18c0,1.1 -0.37,2.02 -1.11,2.76 -0.74,0.74 -1.59,1.11 -2.57,1.11 -1.06,0 -1.95,-0.37 -2.69,-1.11 -0.74,-0.74 -1.11,-1.66 -1.11,-2.76l0 -17.68 0.51 2.03 -13.69 -18.18c-0.42,-0.55 -0.72,-1.08 -0.89,-1.58 -0.17,-0.51 -0.25,-0.97 -0.25,-1.39 0,-1.14 0.44,-2.07 1.33,-2.79 0.89,-0.72 1.8,-1.08 2.72,-1.08 1.18,0 2.22,0.59 3.1,1.77l12.17 16.79 -1.77 -0.25 11.21 -16.41c0.89,-1.27 1.94,-1.9 3.17,-1.9zm34.6 10.01c1.1,0 2.01,0.36 2.72,1.08 0.72,0.72 1.08,1.65 1.08,2.79l0 26.8c0,1.1 -0.36,2.02 -1.08,2.76 -0.72,0.74 -1.63,1.11 -2.72,1.11 -1.1,0 -2.01,-0.37 -2.72,-1.11 -0.72,-0.74 -1.08,-1.66 -1.08,-2.76l0 -3.1 1.39 0.57c0,0.55 -0.3,1.21 -0.89,2 -0.59,0.78 -1.39,1.55 -2.41,2.31 -1.01,0.76 -2.21,1.4 -3.58,1.93 -1.37,0.53 -2.86,0.79 -4.47,0.79 -2.91,0 -5.55,-0.75 -7.92,-2.25 -2.37,-1.5 -4.23,-3.57 -5.61,-6.21 -1.37,-2.64 -2.06,-5.67 -2.06,-9.09 0,-3.46 0.69,-6.52 2.06,-9.16 1.37,-2.64 3.22,-4.71 5.54,-6.21 2.32,-1.5 4.9,-2.25 7.73,-2.25 1.82,0 3.48,0.27 5.01,0.82 1.52,0.55 2.84,1.25 3.96,2.09 1.12,0.84 1.99,1.7 2.6,2.57 0.61,0.87 0.92,1.59 0.92,2.19l-2.28 0.82 0 -4.63c0,-1.1 0.36,-2.02 1.08,-2.76 0.72,-0.74 1.63,-1.11 2.72,-1.11zm-12.8 28.2c1.86,0 3.48,-0.46 4.88,-1.39 1.39,-0.93 2.48,-2.2 3.26,-3.8 0.78,-1.61 1.17,-3.4 1.17,-5.39 0,-2.03 -0.39,-3.84 -1.17,-5.45 -0.78,-1.61 -1.87,-2.87 -3.26,-3.8 -1.39,-0.93 -3.02,-1.39 -4.88,-1.39 -1.82,0 -3.42,0.46 -4.82,1.39 -1.39,0.93 -2.48,2.2 -3.26,3.8 -0.78,1.61 -1.17,3.42 -1.17,5.45 0,1.99 0.39,3.78 1.17,5.39 0.78,1.61 1.87,2.87 3.26,3.8 1.39,0.93 3,1.39 4.82,1.39zm-121.68 24.93c0,0.68 -0.1,1.28 -0.31,1.82 -0.21,0.53 -0.49,0.98 -0.85,1.35 -0.36,0.37 -0.78,0.65 -1.27,0.83 -0.48,0.19 -1,0.28 -1.57,0.28 -0.56,0 -1.08,-0.09 -1.56,-0.27 -0.48,-0.18 -0.89,-0.44 -1.24,-0.79 -0.35,-0.35 -0.63,-0.78 -0.83,-1.29 -0.2,-0.51 -0.3,-1.1 -0.3,-1.76 0,-0.68 0.1,-1.28 0.31,-1.81 0.21,-0.53 0.49,-0.97 0.85,-1.33 0.36,-0.36 0.78,-0.64 1.27,-0.83 0.48,-0.19 1,-0.28 1.57,-0.28 0.56,0 1.08,0.09 1.56,0.26 0.48,0.17 0.89,0.43 1.24,0.77 0.35,0.34 0.63,0.77 0.83,1.28 0.2,0.51 0.3,1.1 0.3,1.76zm-1.58 0.09c0,-0.54 -0.07,-1 -0.21,-1.38 -0.14,-0.38 -0.32,-0.69 -0.54,-0.93 -0.22,-0.24 -0.48,-0.42 -0.77,-0.52 -0.29,-0.11 -0.58,-0.16 -0.88,-0.16 -0.3,0 -0.59,0.05 -0.88,0.14 -0.29,0.09 -0.54,0.25 -0.76,0.48 -0.22,0.23 -0.39,0.54 -0.53,0.92 -0.13,0.38 -0.2,0.87 -0.2,1.45 0,0.54 0.07,1 0.21,1.39 0.14,0.38 0.32,0.7 0.54,0.94 0.22,0.24 0.48,0.42 0.77,0.53 0.29,0.11 0.58,0.17 0.88,0.17 0.3,0 0.59,-0.05 0.88,-0.15 0.29,-0.1 0.54,-0.26 0.76,-0.5 0.22,-0.24 0.39,-0.55 0.52,-0.93 0.13,-0.38 0.2,-0.87 0.2,-1.45zm8.45 4.05l-1.52 0 0 -8.09 1.19 0 0.22 1.12c0.4,-0.4 0.82,-0.71 1.27,-0.92 0.44,-0.21 0.95,-0.32 1.52,-0.32 0.83,0 1.47,0.23 1.95,0.7 0.47,0.46 0.71,1.11 0.71,1.94l0 5.58 -1.52 0 0 -5.35c0,-0.49 -0.13,-0.89 -0.39,-1.18 -0.26,-0.29 -0.65,-0.44 -1.18,-0.44 -0.8,0 -1.56,0.36 -2.26,1.08l0 5.89zm15.36 -6.96l-2.38 0 0 4.7c0,0.4 0.1,0.67 0.3,0.81 0.2,0.14 0.46,0.21 0.78,0.21 0.23,0 0.48,-0.03 0.76,-0.08 0.28,-0.05 0.52,-0.11 0.72,-0.18l0.24 1.15c-0.23,0.09 -0.52,0.17 -0.88,0.24 -0.36,0.07 -0.73,0.1 -1.12,0.1 -0.8,0 -1.39,-0.17 -1.76,-0.53 -0.37,-0.35 -0.55,-0.86 -0.55,-1.52l0 -4.91 -1.21 0 0 -1.14 1.21 0 0 -2.58 1.5 0 0 2.58 2.38 0 0 1.14zm5.49 6.96l0 -8.09 1.14 0 0.26 1.62c0.2,-0.52 0.52,-0.94 0.96,-1.26 0.45,-0.32 0.96,-0.48 1.55,-0.48 0.3,0 0.55,0.02 0.74,0.07 0.2,0.05 0.37,0.1 0.53,0.17l-0.29 1.33c-0.14,-0.07 -0.29,-0.13 -0.46,-0.17 -0.17,-0.05 -0.36,-0.07 -0.59,-0.07 -0.33,0 -0.64,0.06 -0.92,0.17 -0.28,0.11 -0.53,0.29 -0.74,0.52 -0.21,0.23 -0.38,0.51 -0.5,0.85 -0.12,0.34 -0.18,0.73 -0.18,1.16l0 4.18 -1.5 0zm16.94 -4.13c0,0.68 -0.1,1.28 -0.31,1.82 -0.21,0.53 -0.49,0.98 -0.85,1.35 -0.36,0.37 -0.78,0.65 -1.27,0.83 -0.48,0.19 -1,0.28 -1.57,0.28 -0.56,0 -1.08,-0.09 -1.56,-0.27 -0.48,-0.18 -0.89,-0.44 -1.24,-0.79 -0.35,-0.35 -0.63,-0.78 -0.83,-1.29 -0.2,-0.51 -0.3,-1.1 -0.3,-1.76 0,-0.68 0.1,-1.28 0.31,-1.81 0.21,-0.53 0.49,-0.97 0.85,-1.33 0.36,-0.36 0.78,-0.64 1.27,-0.83 0.48,-0.19 1,-0.28 1.57,-0.28 0.56,0 1.08,0.09 1.56,0.26 0.48,0.17 0.89,0.43 1.24,0.77 0.35,0.34 0.63,0.77 0.83,1.28 0.2,0.51 0.3,1.1 0.3,1.76zm-1.58 0.09c0,-0.54 -0.07,-1 -0.21,-1.38 -0.14,-0.38 -0.32,-0.69 -0.54,-0.93 -0.22,-0.24 -0.48,-0.42 -0.77,-0.52 -0.29,-0.11 -0.58,-0.16 -0.88,-0.16 -0.3,0 -0.59,0.05 -0.88,0.14 -0.29,0.09 -0.54,0.25 -0.76,0.48 -0.22,0.23 -0.39,0.54 -0.53,0.92 -0.13,0.38 -0.2,0.87 -0.2,1.45 0,0.54 0.07,1 0.21,1.39 0.14,0.38 0.32,0.7 0.54,0.94 0.22,0.24 0.48,0.42 0.77,0.53 0.29,0.11 0.58,0.17 0.88,0.17 0.3,0 0.59,-0.05 0.88,-0.15 0.29,-0.1 0.54,-0.26 0.76,-0.5 0.22,-0.24 0.39,-0.55 0.52,-0.93 0.13,-0.38 0.2,-0.87 0.2,-1.45zm7.01 4.05l0 -12.22 1.48 0 0 12.22 -1.48 0zm18.98 -10.85l1.41 0 4.32 10.85 -1.65 0 -1.19 -3.01 -4.46 0 -1.17 3.01 -1.64 0 4.37 -10.85zm-1.14 6.58l3.56 0 -0.72 -1.88c-0.2,-0.49 -0.37,-0.97 -0.53,-1.43 -0.16,-0.46 -0.32,-0.93 -0.48,-1.41l-0.03 0c-0.16,0.48 -0.33,0.95 -0.5,1.39 -0.17,0.45 -0.36,0.93 -0.55,1.45l-0.74 1.88zm9.95 -3.82l1.62 0 1.72 4.63 0.59 1.93 0.03 0 0.59 -1.93 1.57 -4.63 1.55 0 -3.12 8.78c-0.34,0.98 -0.78,1.74 -1.3,2.29 -0.52,0.55 -1.14,0.95 -1.87,1.21l-0.65 -1.21c0.54,-0.21 1.02,-0.5 1.44,-0.9 0.42,-0.39 0.74,-0.93 0.97,-1.62l0.15 -0.46 -3.29 -8.09zm12.38 0.72c0.28,-0.14 0.53,-0.26 0.77,-0.37 0.24,-0.11 0.48,-0.2 0.72,-0.27 0.24,-0.07 0.49,-0.12 0.74,-0.15 0.25,-0.03 0.53,-0.05 0.83,-0.05 0.45,0 0.86,0.05 1.23,0.15 0.37,0.1 0.69,0.26 0.96,0.49 0.27,0.23 0.48,0.53 0.63,0.9 0.15,0.37 0.22,0.84 0.22,1.4l0 5.27 -1.26 0 -0.19 -0.9 -0.03 0c-0.36,0.38 -0.75,0.65 -1.17,0.81 -0.42,0.16 -0.9,0.24 -1.41,0.24 -0.39,0 -0.75,-0.05 -1.08,-0.16 -0.33,-0.11 -0.61,-0.26 -0.85,-0.46 -0.24,-0.2 -0.43,-0.44 -0.56,-0.73 -0.13,-0.29 -0.2,-0.61 -0.2,-0.96 0,-0.85 0.34,-1.49 1.01,-1.94 0.67,-0.44 1.56,-0.66 2.66,-0.66l1.55 0 0 -0.69c0,-0.59 -0.15,-0.98 -0.45,-1.2 -0.3,-0.21 -0.7,-0.32 -1.21,-0.32 -0.3,0 -0.64,0.05 -1.02,0.15 -0.38,0.1 -0.82,0.28 -1.32,0.56l-0.59 -1.1zm4.6 3.63l-1.27 0.03c-0.86,0.02 -1.47,0.18 -1.83,0.46 -0.36,0.28 -0.54,0.62 -0.54,1.02 0,0.24 0.04,0.44 0.12,0.61 0.08,0.17 0.19,0.3 0.32,0.39 0.13,0.09 0.29,0.16 0.46,0.2 0.18,0.04 0.36,0.06 0.56,0.06 0.38,0 0.76,-0.09 1.15,-0.27 0.39,-0.18 0.73,-0.46 1.03,-0.85l0 -1.65zm8.76 3.74l-1.52 0 0 -8.09 1.17 0 0.22 1.12c0.38,-0.38 0.79,-0.68 1.22,-0.9 0.44,-0.22 0.96,-0.34 1.57,-0.34 0.57,0 1.04,0.12 1.41,0.35 0.37,0.24 0.64,0.56 0.83,0.97 0.4,-0.42 0.84,-0.75 1.33,-0.98 0.48,-0.23 1.02,-0.34 1.6,-0.34 0.83,0 1.45,0.23 1.87,0.7 0.42,0.46 0.63,1.11 0.63,1.94l0 5.58 -1.52 0 0 -5.3c0,-0.54 -0.11,-0.95 -0.34,-1.24 -0.23,-0.29 -0.61,-0.43 -1.14,-0.43 -0.78,0 -1.51,0.35 -2.19,1.05 0.01,0.06 0.02,0.11 0.02,0.17 0,0.06 0,0.11 0,0.17l0 5.58 -1.52 0 0 -5.3c0,-0.54 -0.11,-0.95 -0.34,-1.24 -0.23,-0.29 -0.61,-0.43 -1.14,-0.43 -0.78,0 -1.5,0.37 -2.17,1.1l0 5.87zm17.7 -2.96l0 2.96 -1.5 0 0 -12.22 1.5 0 0 7.61 3.25 -3.48 1.88 0 -3.32 3.41 3.48 4.68 -1.79 0 -2.69 -3.77 -0.81 0.81zm15.46 -5.13l1.51 0 0 8.09 -1.19 0 -0.21 -1.02 -0.07 0c-0.3,0.33 -0.67,0.61 -1.11,0.83 -0.44,0.22 -0.96,0.34 -1.54,0.34 -0.84,0 -1.52,-0.24 -2.04,-0.71 -0.52,-0.48 -0.78,-1.2 -0.78,-2.16l0 -5.37 1.52 0 0 5.18c0,0.34 0.04,0.64 0.13,0.88 0.09,0.24 0.2,0.43 0.34,0.58 0.14,0.14 0.31,0.25 0.51,0.31 0.2,0.06 0.41,0.09 0.64,0.09 0.46,0 0.87,-0.1 1.24,-0.29 0.37,-0.2 0.72,-0.46 1.05,-0.81l0 -5.94z"/>
 </g>
</svg>
