<?xml version="1.0" encoding="UTF-8"?>
<!DOCTYPE svg PUBLIC "-//W3C//DTD SVG 1.1//EN" "http://www.w3.org/Graphics/SVG/1.1/DTD/svg11.dtd">
<!-- Creator: CorelDRAW 2020 (64-Bit) -->
<svg xmlns="http://www.w3.org/2000/svg" xml:space="preserve" width="7.22725in" height="1.61112in" version="1.1" style="shape-rendering:geometricPrecision; text-rendering:geometricPrecision; image-rendering:optimizeQuality; fill-rule:evenodd; clip-rule:evenodd"
viewBox="0 0 660.96 147.34"
 xmlns:xlink="http://www.w3.org/1999/xlink"
 xmlns:xodm="http://www.corel.com/coreldraw/odm/2003">
 <defs>
  <style type="text/css">
   <![CDATA[
    .fil1 {fill:white}
    .fil0 {fill:white;fill-rule:nonzero}
   ]]>
  </style>
 </defs>
 <g id="Layer_x0020_1">
  <metadata id="CorelCorpID_0Corel-Layer"/>
  <path class="fil0" d="M356.61 134.4l0 -20.84 3.04 0 0 9.43 8.77 -9.43 3.77 0 -8.6 9.23 9.26 11.61 -3.84 0 -7.61 -9.53 -1.75 1.89 0 7.64 -3.04 0zm58.68 -43.67c-2.27,0 -4.1,-0.93 -5.48,-2.8l-28.12 -37.01 11.08 -11.32 29.1 38.47c1.14,1.54 1.7,3.21 1.7,4.99 0,2.27 -0.85,4.12 -2.56,5.54 -1.7,1.42 -3.61,2.13 -5.72,2.13zm1.46 -85.83c1.95,0 3.55,0.79 4.81,2.37 1.26,1.58 1.89,3.19 1.89,4.81 0,1.7 -0.73,3.29 -2.19,4.75l-51.01 48.82 -0.61 -17.41 41.15 -40.54c1.87,-1.87 3.86,-2.8 5.97,-2.8zm-52.59 85.83c-2.27,0 -4.1,-0.71 -5.48,-2.13 -1.38,-1.42 -2.07,-3.19 -2.07,-5.3l0 -70.37c0,-2.11 0.73,-3.88 2.19,-5.3 1.46,-1.42 3.33,-2.13 5.6,-2.13 2.27,0 4.08,0.71 5.42,2.13 1.34,1.42 2.01,3.19 2.01,5.3l0 70.37c0,2.11 -0.69,3.88 -2.07,5.3 -1.38,1.42 -3.25,2.13 -5.6,2.13zm131.6 -32.5c0,6.66 -1.48,12.52 -4.44,17.59 -2.96,5.07 -6.94,9.03 -11.93,11.87 -4.99,2.84 -10.57,4.26 -16.74,4.26 -6.17,0 -11.75,-1.42 -16.74,-4.26 -4.99,-2.84 -8.97,-6.8 -11.93,-11.87 -2.96,-5.07 -4.44,-10.94 -4.44,-17.59 0,-6.66 1.48,-12.52 4.44,-17.59 2.96,-5.07 6.94,-9.05 11.93,-11.93 4.99,-2.88 10.57,-4.32 16.74,-4.32 6.17,0 11.75,1.44 16.74,4.32 4.99,2.88 8.97,6.86 11.93,11.93 2.96,5.07 4.44,10.94 4.44,17.59zm-14.61 0c0,-4.14 -0.83,-7.73 -2.5,-10.77 -1.66,-3.04 -3.9,-5.42 -6.7,-7.12 -2.8,-1.7 -5.9,-2.56 -9.31,-2.56 -3.41,0 -6.51,0.85 -9.31,2.56 -2.8,1.7 -5.03,4.08 -6.7,7.12 -1.66,3.04 -2.5,6.63 -2.5,10.77 0,4.06 0.83,7.61 2.5,10.65 1.66,3.04 3.9,5.42 6.7,7.12 2.8,1.7 5.9,2.56 9.31,2.56 3.41,0 6.51,-0.85 9.31,-2.56 2.8,-1.7 5.03,-4.08 6.7,-7.12 1.66,-3.04 2.5,-6.59 2.5,-10.65zm106.04 -53.08c1.87,0 3.55,0.71 5.05,2.13 1.5,1.42 2.25,3.23 2.25,5.42 0,0.73 -0.1,1.48 -0.3,2.25 -0.2,0.77 -0.55,1.52 -1.03,2.25l-27.64 39.57 2.19 -8.4 0 34.94c0,2.11 -0.71,3.88 -2.13,5.3 -1.42,1.42 -3.06,2.13 -4.93,2.13 -2.03,0 -3.75,-0.71 -5.17,-2.13 -1.42,-1.42 -2.13,-3.19 -2.13,-5.3l0 -33.97 0.97 3.9 -26.3 -34.94c-0.81,-1.05 -1.38,-2.07 -1.7,-3.04 -0.32,-0.97 -0.49,-1.87 -0.49,-2.68 0,-2.19 0.85,-3.98 2.56,-5.36 1.7,-1.38 3.45,-2.07 5.23,-2.07 2.27,0 4.26,1.14 5.97,3.41l23.37 32.26 -3.41 -0.49 21.55 -31.53c1.7,-2.44 3.73,-3.65 6.09,-3.65zm66.47 19.24c2.11,0 3.86,0.69 5.23,2.07 1.38,1.38 2.07,3.16 2.07,5.36l0 51.5c0,2.11 -0.69,3.88 -2.07,5.3 -1.38,1.42 -3.12,2.13 -5.23,2.13 -2.11,0 -3.86,-0.71 -5.23,-2.13 -1.38,-1.42 -2.07,-3.19 -2.07,-5.3l0 -5.97 2.68 1.1c0,1.06 -0.57,2.33 -1.7,3.83 -1.14,1.5 -2.68,2.98 -4.63,4.44 -1.95,1.46 -4.24,2.7 -6.88,3.71 -2.64,1.01 -5.5,1.52 -8.58,1.52 -5.6,0 -10.67,-1.44 -15.22,-4.32 -4.54,-2.88 -8.14,-6.86 -10.77,-11.93 -2.64,-5.07 -3.96,-10.9 -3.96,-17.47 0,-6.66 1.32,-12.52 3.96,-17.59 2.64,-5.07 6.19,-9.05 10.65,-11.93 4.46,-2.88 9.41,-4.32 14.85,-4.32 3.49,0 6.7,0.53 9.62,1.58 2.92,1.06 5.46,2.39 7.61,4.02 2.15,1.62 3.81,3.27 4.99,4.93 1.18,1.66 1.76,3.06 1.76,4.2l-4.38 1.58 0 -8.89c0,-2.11 0.69,-3.88 2.07,-5.3 1.38,-1.42 3.12,-2.13 5.23,-2.13zm-24.59 54.17c3.57,0 6.7,-0.89 9.37,-2.68 2.68,-1.79 4.77,-4.22 6.27,-7.3 1.5,-3.08 2.25,-6.53 2.25,-10.35 0,-3.9 -0.75,-7.39 -2.25,-10.47 -1.5,-3.08 -3.59,-5.52 -6.27,-7.3 -2.68,-1.79 -5.8,-2.68 -9.37,-2.68 -3.49,0 -6.57,0.89 -9.25,2.68 -2.68,1.79 -4.77,4.22 -6.27,7.3 -1.5,3.08 -2.25,6.57 -2.25,10.47 0,3.81 0.75,7.26 2.25,10.35 1.5,3.08 3.59,5.52 6.27,7.3 2.68,1.79 5.76,2.68 9.25,2.68zm-233.79 47.91c0,1.3 -0.2,2.46 -0.6,3.49 -0.4,1.03 -0.94,1.89 -1.64,2.6 -0.69,0.71 -1.51,1.24 -2.43,1.6 -0.93,0.36 -1.93,0.55 -3.01,0.55 -1.08,0 -2.08,-0.17 -2.99,-0.51 -0.92,-0.34 -1.71,-0.85 -2.38,-1.52 -0.67,-0.67 -1.2,-1.5 -1.59,-2.48 -0.39,-0.98 -0.58,-2.11 -0.58,-3.39 0,-1.3 0.2,-2.46 0.6,-3.47 0.4,-1.01 0.94,-1.87 1.64,-2.56 0.69,-0.69 1.51,-1.22 2.43,-1.59 0.93,-0.36 1.93,-0.55 3.01,-0.55 1.08,0 2.08,0.17 2.99,0.5 0.92,0.33 1.71,0.83 2.38,1.49 0.67,0.66 1.2,1.48 1.59,2.46 0.39,0.98 0.58,2.11 0.58,3.39zm-3.04 0.17c0,-1.04 -0.13,-1.92 -0.4,-2.65 -0.27,-0.73 -0.61,-1.32 -1.04,-1.79 -0.43,-0.46 -0.92,-0.8 -1.47,-1.01 -0.55,-0.21 -1.11,-0.31 -1.69,-0.31 -0.57,0 -1.14,0.09 -1.69,0.26 -0.55,0.18 -1.04,0.49 -1.46,0.93 -0.42,0.44 -0.76,1.03 -1.01,1.77 -0.25,0.74 -0.38,1.67 -0.38,2.79 0,1.04 0.13,1.92 0.4,2.66 0.26,0.74 0.61,1.34 1.04,1.8 0.43,0.46 0.92,0.81 1.47,1.03 0.55,0.22 1.11,0.33 1.69,0.33 0.57,0 1.14,-0.09 1.69,-0.28 0.55,-0.19 1.04,-0.51 1.46,-0.96 0.42,-0.45 0.76,-1.05 1.01,-1.79 0.25,-0.74 0.38,-1.67 0.38,-2.8zm16.24 7.77l-2.91 0 0 -15.55 2.28 0 0.43 2.15c0.77,-0.77 1.58,-1.36 2.43,-1.77 0.85,-0.41 1.82,-0.61 2.93,-0.61 1.59,0 2.83,0.45 3.74,1.34 0.9,0.89 1.36,2.13 1.36,3.72l0 10.72 -2.91 0 0 -10.29c0,-0.95 -0.25,-1.7 -0.74,-2.27 -0.5,-0.56 -1.25,-0.84 -2.27,-0.84 -1.54,0 -2.99,0.69 -4.33,2.08l0 11.31zm29.5 -13.36l-4.57 0 0 9.03c0,0.77 0.19,1.29 0.58,1.55 0.39,0.26 0.89,0.4 1.51,0.4 0.44,0 0.93,-0.05 1.46,-0.15 0.53,-0.1 0.99,-0.22 1.39,-0.35l0.46 2.22c-0.44,0.18 -1,0.33 -1.69,0.46 -0.68,0.13 -1.4,0.2 -2.15,0.2 -1.54,0 -2.67,-0.34 -3.37,-1.01 -0.71,-0.67 -1.06,-1.65 -1.06,-2.93l0 -9.43 -2.32 0 0 -2.18 2.32 0 0 -4.96 2.88 0 0 4.96 4.57 0 0 2.18zm10.55 13.36l0 -15.55 2.18 0 0.5 3.11c0.38,-0.99 0.99,-1.8 1.85,-2.41 0.86,-0.62 1.85,-0.93 2.98,-0.93 0.57,0 1.05,0.04 1.42,0.13 0.37,0.09 0.72,0.2 1.03,0.33l-0.56 2.55c-0.26,-0.13 -0.56,-0.24 -0.88,-0.33 -0.32,-0.09 -0.7,-0.13 -1.14,-0.13 -0.64,0 -1.23,0.11 -1.77,0.33 -0.54,0.22 -1.01,0.55 -1.42,0.99 -0.41,0.44 -0.73,0.99 -0.96,1.64 -0.23,0.65 -0.35,1.39 -0.35,2.23l0 8.04 -2.88 0zm32.55 -7.94c0,1.3 -0.2,2.46 -0.6,3.49 -0.4,1.03 -0.94,1.89 -1.64,2.6 -0.69,0.71 -1.51,1.24 -2.43,1.6 -0.93,0.36 -1.93,0.55 -3.01,0.55 -1.08,0 -2.08,-0.17 -2.99,-0.51 -0.92,-0.34 -1.71,-0.85 -2.38,-1.52 -0.67,-0.67 -1.2,-1.5 -1.59,-2.48 -0.39,-0.98 -0.58,-2.11 -0.58,-3.39 0,-1.3 0.2,-2.46 0.6,-3.47 0.4,-1.01 0.94,-1.87 1.64,-2.56 0.69,-0.69 1.51,-1.22 2.43,-1.59 0.93,-0.36 1.93,-0.55 3.01,-0.55 1.08,0 2.08,0.17 2.99,0.5 0.92,0.33 1.71,0.83 2.38,1.49 0.67,0.66 1.2,1.48 1.59,2.46 0.39,0.98 0.58,2.11 0.58,3.39zm-3.04 0.17c0,-1.04 -0.13,-1.92 -0.4,-2.65 -0.26,-0.73 -0.61,-1.32 -1.04,-1.79 -0.43,-0.46 -0.92,-0.8 -1.47,-1.01 -0.55,-0.21 -1.11,-0.31 -1.69,-0.31 -0.57,0 -1.14,0.09 -1.69,0.26 -0.55,0.18 -1.04,0.49 -1.46,0.93 -0.42,0.44 -0.76,1.03 -1.01,1.77 -0.25,0.74 -0.38,1.67 -0.38,2.79 0,1.04 0.13,1.92 0.4,2.66 0.26,0.74 0.61,1.34 1.04,1.8 0.43,0.46 0.92,0.81 1.47,1.03 0.55,0.22 1.11,0.33 1.69,0.33 0.57,0 1.14,-0.09 1.69,-0.28 0.55,-0.19 1.04,-0.51 1.46,-0.96 0.42,-0.45 0.76,-1.05 1.01,-1.79 0.25,-0.74 0.38,-1.67 0.38,-2.8zm13.46 7.77l0 -23.49 2.84 0 0 23.49 -2.84 0zm36.47 -20.84l2.71 0 8.3 20.84 -3.18 0 -2.28 -5.79 -8.57 0 -2.25 5.79 -3.14 0 8.4 -20.84zm-2.18 12.64l6.85 0 -1.39 -3.61c-0.38,-0.95 -0.72,-1.86 -1.03,-2.75 -0.31,-0.88 -0.62,-1.79 -0.93,-2.71l-0.07 0c-0.31,0.93 -0.63,1.82 -0.96,2.68 -0.33,0.86 -0.68,1.79 -1.06,2.78l-1.42 3.61zm19.12 -7.34l3.11 0 3.31 8.9 1.12 3.7 0.07 0 1.12 -3.7 3.01 -8.9 2.98 0 -5.99 16.87c-0.66,1.87 -1.49,3.34 -2.5,4.4 -1,1.06 -2.2,1.83 -3.59,2.32l-1.26 -2.32c1.04,-0.4 1.96,-0.97 2.76,-1.72 0.8,-0.75 1.43,-1.79 1.87,-3.11l0.3 -0.89 -6.32 -15.55zm23.78 1.39c0.53,-0.27 1.03,-0.5 1.49,-0.71 0.46,-0.21 0.93,-0.38 1.39,-0.51 0.46,-0.13 0.94,-0.23 1.42,-0.3 0.48,-0.07 1.01,-0.1 1.59,-0.1 0.86,0 1.65,0.09 2.37,0.28 0.72,0.19 1.33,0.5 1.85,0.94 0.52,0.44 0.92,1.02 1.21,1.74 0.29,0.72 0.43,1.62 0.43,2.7l0 10.12 -2.41 0 -0.36 -1.72 -0.07 0c-0.68,0.73 -1.43,1.25 -2.25,1.55 -0.82,0.31 -1.72,0.46 -2.71,0.46 -0.75,0 -1.44,-0.1 -2.07,-0.31 -0.63,-0.21 -1.17,-0.51 -1.64,-0.89 -0.46,-0.39 -0.82,-0.85 -1.08,-1.41 -0.25,-0.55 -0.38,-1.17 -0.38,-1.85 0,-1.63 0.64,-2.87 1.93,-3.72 1.29,-0.85 2.99,-1.27 5.11,-1.27l2.98 0 0 -1.32c0,-1.12 -0.29,-1.89 -0.86,-2.3 -0.57,-0.41 -1.35,-0.61 -2.32,-0.61 -0.57,0 -1.23,0.09 -1.97,0.28 -0.74,0.19 -1.58,0.55 -2.53,1.07l-1.12 -2.12zm8.83 6.98l-2.45 0.07c-1.65,0.04 -2.83,0.34 -3.52,0.88 -0.69,0.54 -1.04,1.2 -1.04,1.97 0,0.46 0.08,0.85 0.23,1.17 0.15,0.32 0.36,0.57 0.61,0.74 0.25,0.18 0.55,0.3 0.89,0.38 0.34,0.08 0.7,0.12 1.08,0.12 0.73,0 1.47,-0.17 2.22,-0.51 0.75,-0.34 1.41,-0.89 1.98,-1.64l0 -3.18zm16.84 7.18l-2.91 0 0 -15.55 2.25 0 0.43 2.15c0.73,-0.73 1.51,-1.31 2.35,-1.74 0.84,-0.43 1.84,-0.64 3.01,-0.64 1.1,0 2.01,0.23 2.71,0.68 0.71,0.45 1.23,1.07 1.59,1.87 0.77,-0.82 1.62,-1.44 2.55,-1.89 0.93,-0.44 1.95,-0.66 3.08,-0.66 1.59,0 2.78,0.45 3.59,1.34 0.8,0.89 1.21,2.13 1.21,3.72l0 10.72 -2.91 0 0 -10.19c0,-1.04 -0.22,-1.83 -0.66,-2.38 -0.44,-0.55 -1.17,-0.83 -2.18,-0.83 -1.5,0 -2.9,0.67 -4.2,2.02 0.02,0.11 0.03,0.22 0.03,0.33 0,0.11 0,0.22 0,0.33l0 10.72 -2.91 0 0 -10.19c0,-1.04 -0.22,-1.83 -0.66,-2.38 -0.44,-0.55 -1.17,-0.83 -2.18,-0.83 -1.5,0 -2.89,0.71 -4.17,2.12l0 11.28zm34 -5.69l0 5.69 -2.88 0 0 -23.49 2.88 0 0 14.62 6.25 -6.68 3.61 0 -6.38 6.55 6.68 9 -3.44 0 -5.16 -7.24 -1.55 1.55zm29.7 -9.86l2.91 0 0 15.55 -2.28 0 -0.4 -1.95 -0.13 0c-0.57,0.64 -1.28,1.17 -2.13,1.6 -0.85,0.43 -1.84,0.65 -2.96,0.65 -1.61,0 -2.92,-0.46 -3.92,-1.37 -1,-0.92 -1.51,-2.3 -1.51,-4.15l0 -10.32 2.91 0 0 9.96c0,0.66 0.08,1.22 0.25,1.69 0.17,0.46 0.39,0.83 0.66,1.11 0.28,0.28 0.6,0.47 0.98,0.6 0.38,0.12 0.78,0.18 1.22,0.18 0.88,0 1.68,-0.19 2.38,-0.56 0.71,-0.37 1.38,-0.89 2.02,-1.55l0 -11.41z"/>
  <path class="fil1" d="M233.08 147.31l54.86 0c17.95,-1.2 16.88,-20.5 2.91,-28.93 -13.97,-8.43 -12.93,-20.11 -4.94,-20.11l10 0c0,-8.22 -5.67,-12.94 -11.94,-17.43 -2.31,-1.17 -3.89,-3.57 -3.89,-6.34 0,-2.44 1.23,-4.59 3.1,-5.87 11.32,-4.69 19.28,-13.83 19.28,-28.86 0,-15.03 -10.32,-30.9 -27.29,-31.22l0 18.59 -0 0c-1.79,-16.41 -9.22,-27.05 -41.23,-27.05l0 0c-0.7,-0.06 -1.41,-0.09 -2.12,-0.09l-207.68 0c-3.25,0 -6.36,0.65 -9.21,1.84 -2.95,1.23 -5.61,3.03 -7.84,5.25 -2.23,2.23 -4.02,4.89 -5.25,7.84 -1.18,2.84 -1.84,5.95 -1.84,9.21l0 99.08c0,3.25 0.65,6.36 1.84,9.21 1.23,2.95 3.03,5.61 5.25,7.84 2.23,2.23 4.89,4.02 7.84,5.25 2.84,1.18 5.95,1.84 9.21,1.84l207.68 0c0.42,0 0.85,-0.01 1.27,-0.03zm-174.49 -32.82c-1.77,1.77 -4.65,1.77 -6.42,0 -1.77,-1.77 -1.77,-4.65 0,-6.42l51.27 -51.27c1.77,-1.77 4.65,-1.77 6.42,0l31.78 31.78 38.62 -38.62c-0.76,-1.65 -1.18,-3.48 -1.18,-5.41 0,-7.19 5.83,-13.02 13.02,-13.02 7.19,0 13.01,5.83 13.01,13.02 0,7.19 -5.83,13.01 -13.01,13.01 -1.93,0 -3.77,-0.42 -5.41,-1.18l-41.83 41.83c-1.77,1.77 -4.65,1.77 -6.42,0l-31.78 -31.78 -48.06 48.06zm188.14 -97.42l0 113.22c-0.82,1.71 -1.92,3.26 -3.25,4.59 -1.53,1.53 -3.35,2.76 -5.37,3.6 -1.94,0.81 -4.07,1.25 -6.29,1.25l-207.68 0c-2.23,0 -4.35,-0.45 -6.29,-1.25 -2.02,-0.84 -3.84,-2.07 -5.37,-3.6 -1.53,-1.53 -2.76,-3.35 -3.6,-5.37 -0.81,-1.94 -1.25,-4.07 -1.25,-6.29l0 -99.08c0,-2.23 0.45,-4.35 1.25,-6.29 0.84,-2.02 2.07,-3.84 3.6,-5.37 1.53,-1.53 3.35,-2.76 5.37,-3.6 1.94,-0.81 4.07,-1.25 6.29,-1.25l207.68 0c2.23,0 4.35,0.45 6.29,1.25 2.02,0.84 3.84,2.07 5.37,3.6 1.33,1.33 2.43,2.88 3.25,4.59z"/>
 </g>
</svg>
