<?xml version="1.0" encoding="UTF-8"?>
<!DOCTYPE svg PUBLIC "-//W3C//DTD SVG 1.1//EN" "http://www.w3.org/Graphics/SVG/1.1/DTD/svg11.dtd">
<!-- Creator: CorelDRAW 2020 (64-Bit) -->
<svg xmlns="http://www.w3.org/2000/svg" xml:space="preserve" width="15.7903in" height="8.33333in" version="1.1" style="shape-rendering:geometricPrecision; text-rendering:geometricPrecision; image-rendering:optimizeQuality; fill-rule:evenodd; clip-rule:evenodd"
viewBox="0 0 5936.7 3133.1"
 xmlns:xlink="http://www.w3.org/1999/xlink"
 xmlns:xodm="http://www.corel.com/coreldraw/odm/2003">
 <defs>
  <style type="text/css">
   <![CDATA[
    .fil0 {fill:#BE9D39;fill-rule:nonzero}
   ]]>
  </style>
 </defs>
 <g id="Layer_x0020_1">
  <metadata id="CorelCorpID_0Corel-Layer"/>
  <path class="fil0" d="M1952.43 0c58.84,0 106.89,19.61 143.17,58.84 37.26,39.23 54.92,88.25 54.92,147.1l0 2144.62c0,63.74 -21.57,116.69 -64.72,159.85 -43.15,43.15 -96.1,64.72 -159.85,64.72 -32.36,0 -64.72,-5.88 -97.08,-16.67 -33.34,-10.79 -57.85,-26.48 -75.5,-46.09l-1445.43 -1835.72 96.1 -58.84 0 1751.39c0,58.84 -18.63,107.86 -56.88,147.09 -38.24,39.23 -87.28,58.84 -149.06,58.84 -58.84,0 -106.89,-19.61 -143.17,-58.84 -37.26,-39.23 -54.92,-88.25 -54.92,-147.09l0 -2144.62c0,-63.74 21.57,-116.69 64.72,-159.85 43.15,-43.15 96.1,-64.72 159.85,-64.72 34.32,0 69.62,6.87 106.89,20.6 37.26,13.73 63.74,33.34 81.4,60.8l1401.31 1787.67 -62.76 44.13 0 -1707.26c0,-58.84 18.64,-107.87 54.92,-147.1 37.26,-39.23 86.29,-58.84 147.1,-58.84l-0.99 0zm3302.74 2860.48c10.79,0 22.56,1.96 35.3,4.91 12.75,3.92 26.48,10.79 42.17,21.57 20.6,15.69 44.13,29.41 72.57,41.19 28.44,11.77 60.8,17.65 98.06,17.65 37.26,0 72.57,-8.83 104.93,-27.45 33.34,-18.63 59.82,-45.11 81.4,-79.44 21.57,-34.32 32.36,-75.5 32.36,-122.58 0,-45.11 -8.83,-83.36 -27.45,-112.77 -18.63,-29.41 -43.15,-52.96 -73.54,-68.65 -30.4,-15.69 -62.76,-23.53 -98.06,-23.53 -26.48,0 -48.05,1.96 -65.7,6.87 -17.65,4.91 -34.32,9.8 -50.01,15.69 -15.69,4.91 -35.3,7.84 -56.88,7.84 -27.45,0 -49.03,-9.8 -63.74,-28.44 -14.71,-19.61 -22.56,-42.17 -22.56,-68.65 0,-16.67 2.95,-31.38 9.8,-45.11 6.87,-12.75 16.67,-27.45 29.41,-43.15l315.76 -335.37 48.05 41.19 -441.28 0c-28.44,0 -52.96,-9.8 -71.58,-28.44 -19.61,-19.61 -28.44,-43.15 -28.44,-71.58 0,-27.45 9.8,-51 28.44,-68.64 19.61,-18.63 43.15,-27.45 71.58,-27.45l549.15 0c37.26,0 64.72,9.81 83.36,30.4 18.64,20.6 27.45,46.09 27.45,77.47 0,15.69 -3.92,30.4 -12.75,46.09 -8.83,14.71 -18.63,28.44 -30.4,40.21l-317.72 341.25 -48.05 -60.8c12.75,-5.88 31.38,-11.76 54.92,-15.69 23.53,-4.91 43.15,-6.87 57.85,-6.87 70.61,0 132.38,18.63 184.35,54.92 51.97,36.28 92.18,83.36 120.62,142.19 28.44,57.86 42.17,120.62 42.17,187.3 0,88.26 -19.61,164.74 -58.84,229.47 -39.23,64.72 -95.12,114.73 -166.71,149.06 -71.58,34.32 -155.92,51.97 -251.04,51.97 -44.13,0 -88.25,-4.91 -131.41,-15.69 -43.15,-10.79 -80.41,-25.49 -110.81,-43.15 -26.48,-14.71 -44.13,-30.4 -52.96,-47.07 -8.83,-17.65 -13.73,-33.34 -13.73,-49.04 0,-27.45 9.8,-53.93 29.41,-78.45 19.61,-24.52 44.13,-37.26 74.53,-37.26l0.01 -1.96zm-2316.23 -2860.48c58.84,0 110.81,21.57 155.92,64.72 45.11,43.15 67.66,96.1 67.66,159.85l0 2126.97c0,63.74 -23.53,116.69 -69.62,159.85 -47.07,43.15 -101.01,64.72 -161.81,64.72 -68.64,0 -123.56,-21.57 -165.73,-64.72 -42.17,-43.15 -62.76,-96.1 -62.76,-159.85l0 -2126.97c0,-63.74 22.56,-116.69 66.68,-159.85 44.13,-43.15 101.01,-64.72 169.65,-64.72zm1629.8 0c68.64,0 123.55,21.57 165.72,64.72 42.17,43.15 62.76,96.1 62.76,159.85l0 2126.97c0,63.74 -21.57,116.69 -64.72,159.85 -43.15,43.15 -100.01,64.72 -170.62,64.72 -58.84,0 -110.81,-21.57 -155.92,-64.72 -45.11,-43.15 -67.66,-96.1 -67.66,-159.85l0 -2126.97c0,-63.74 23.53,-116.69 69.62,-159.85 47.07,-43.15 101.01,-64.72 161.81,-64.72l-0.99 0zm-1640.59 1070.85l1640.59 0 0 422.65 -1640.59 0 0 -422.65z"/>
 </g>
</svg>
