<?xml version="1.0" encoding="UTF-8"?>
<!DOCTYPE svg PUBLIC "-//W3C//DTD SVG 1.1//EN" "http://www.w3.org/Graphics/SVG/1.1/DTD/svg11.dtd">
<!-- Creator: CorelDRAW 2020 (64-Bit) -->
<svg xmlns="http://www.w3.org/2000/svg" xml:space="preserve" width="4.16669in" height="8.33333in" version="1.1" style="shape-rendering:geometricPrecision; text-rendering:geometricPrecision; image-rendering:optimizeQuality; fill-rule:evenodd; clip-rule:evenodd"
viewBox="0 0 2290.91 4581.8"
 xmlns:xlink="http://www.w3.org/1999/xlink"
 xmlns:xodm="http://www.corel.com/coreldraw/odm/2003">
 <defs>
  <style type="text/css">
   <![CDATA[
    .fil0 {fill:#BE9D39;fill-rule:nonzero}
   ]]>
  </style>
 </defs>
 <g id="Layer_x0020_1">
  <metadata id="CorelCorpID_0Corel-Layer"/>
  <path class="fil0" d="M1909.09 2582.57l0 -1818.94c0,-421.74 -341.89,-763.63 -763.63,-763.63 -421.74,0 -763.63,341.89 -763.63,763.63l0 1818.94c-234.34,209.74 -381.82,514.55 -381.82,853.79 0,632.62 512.84,1145.45 1145.46,1145.45 632.61,0 1145.46,-512.83 1145.46,-1145.45 0,-339.24 -147.48,-644.05 -381.82,-853.78zm-572.72 313.69l0 -1368.99 -381.82 0 0 1368.99c-222.44,78.63 -381.82,290.73 -381.82,540.09 0,316.31 256.42,572.73 572.73,572.73 316.31,0 572.73,-256.42 572.73,-572.73 0,-249.36 -159.38,-461.46 -381.81,-540.09zm-190.91 1303.72c-421.74,0 -763.63,-341.89 -763.63,-763.64 0,-220.47 93.44,-425 254.64,-569.28l127.18 -113.83 0 -1989.61c0,-210.87 170.95,-381.82 381.82,-381.82 210.88,0 381.82,170.94 381.82,381.82l0 1989.62 127.18 113.82c161.2,144.28 254.64,348.8 254.64,569.28 -0.02,421.74 -341.91,763.63 -763.65,763.63z"/>
 </g>
</svg>
